<svg xmlns="http://www.w3.org/2000/svg" xmlns:xlink="http://www.w3.org/1999/xlink" width="133" zoomAndPan="magnify" viewBox="0 0 99.75 68.249996" height="91" preserveAspectRatio="xMidYMid meet" version="1.0"><defs><clipPath id="537ea01e45"><path d="M 1 1 L 98.148438 1 L 98.148438 67 L 1 67 Z M 1 1 " clip-rule="nonzero"/></clipPath></defs><g clip-path="url(#537ea01e45)"><path fill="#b7e402" d="M 36.257812 46.464844 C 37.195312 46.304688 37.59375 47.742188 36.65625 47.902344 C 34.304688 48.277344 31.933594 48.539062 29.539062 48.617188 C 24.855469 48.757812 19.988281 48.359375 15.445312 47.183594 C 11.714844 46.226562 8.1875 44.390625 5.554688 41.539062 C 3.144531 38.949219 1.667969 35.558594 1.328125 32.050781 C 0.96875 28.421875 1.308594 24.472656 2.523438 21.023438 C 3.183594 19.171875 4.019531 17.355469 5.257812 15.820312 C 6.453125 14.328125 7.90625 13.011719 9.441406 11.835938 C 12.492188 9.480469 16.023438 7.789062 19.652344 6.53125 C 23.417969 5.234375 27.347656 4.417969 31.273438 3.800781 C 36.097656 3.042969 40.945312 2.402344 45.808594 1.925781 C 55.398438 0.988281 65.207031 0.710938 74.816406 1.867188 C 78.566406 2.304688 82.273438 3.300781 85.703125 4.894531 C 89.410156 6.628906 92.402344 9.324219 94.773438 12.652344 C 96.765625 15.441406 98.101562 18.710938 98.324219 22.160156 C 98.480469 24.714844 98.003906 27.285156 97.085938 29.679688 C 96.6875 30.695312 96.25 31.75 95.710938 32.6875 C 94.753906 34.324219 93.339844 35.71875 91.863281 36.894531 C 88.613281 39.507812 84.644531 41.101562 80.71875 42.398438 C 76.472656 43.792969 72.085938 44.691406 67.660156 45.289062 C 65.425781 45.585938 63.195312 45.828125 60.960938 45.988281 C 59.84375 46.066406 58.746094 46.144531 57.632812 46.207031 C 56.515625 46.265625 55.359375 46.207031 54.261719 46.367188 C 53.425781 46.484375 53.605469 48.101562 53.503906 48.777344 C 53.363281 49.792969 53.125 50.769531 52.804688 51.75 C 52.207031 53.601562 51.332031 55.375 50.3125 57.050781 C 48.160156 60.558594 45.351562 63.628906 42.539062 66.621094 C 42.039062 67.140625 41.042969 66.601562 41.28125 65.902344 C 42.835938 61.457031 43.59375 56.773438 43.496094 52.046875 C 43.476562 50.851562 43.375 49.675781 43.238281 48.480469 C 43.195312 48.179688 43.15625 47.878906 43.117188 47.582031 C 43.136719 47.660156 43.015625 46.882812 43.117188 47.003906 C 42.996094 46.902344 42.300781 47.0625 42.140625 47.082031 C 40.304688 47.34375 38.492188 47.640625 36.65625 47.921875 C 35.71875 48.039062 35.300781 46.605469 36.257812 46.464844 C 38.3125 46.164062 40.367188 45.765625 42.4375 45.527344 C 43.296875 45.429688 44.09375 45.527344 44.414062 46.464844 C 44.8125 47.640625 44.8125 49.136719 44.890625 50.371094 C 45.25 55.753906 44.492188 61.179688 42.71875 66.261719 C 42.300781 66.023438 41.878906 65.785156 41.460938 65.542969 C 42.796875 64.128906 44.113281 62.695312 45.371094 61.21875 C 47.84375 58.289062 50.15625 55.039062 51.332031 51.371094 C 51.648438 50.390625 51.890625 49.394531 52.027344 48.398438 C 52.148438 47.582031 52.046875 46.605469 52.488281 45.847656 C 52.925781 45.089844 53.722656 44.910156 54.539062 44.871094 C 55.597656 44.808594 56.675781 44.769531 57.730469 44.710938 C 66.304688 44.230469 74.976562 43.09375 83.03125 39.964844 C 86.738281 38.53125 90.289062 36.714844 93.019531 33.746094 C 94.652344 31.972656 95.652344 29.617188 96.269531 27.304688 C 96.945312 24.792969 97.027344 22.160156 96.410156 19.628906 C 95.492188 15.902344 93.21875 12.671875 90.527344 10 C 84.984375 4.476562 76.609375 3.320312 69.15625 2.863281 C 59.863281 2.285156 50.574219 2.804688 41.34375 3.898438 C 33.1875 4.855469 24.675781 5.8125 17.058594 9.101562 C 13.691406 10.558594 10.519531 12.511719 7.90625 15.105469 C 5.214844 17.777344 3.640625 21.203125 3.042969 24.933594 C 2.484375 28.460938 2.425781 32.25 3.640625 35.660156 C 4.796875 38.890625 7.152344 41.519531 10.019531 43.355469 C 13.589844 45.628906 17.957031 46.367188 22.101562 46.824219 C 26.808594 47.34375 31.574219 47.242188 36.257812 46.464844 Z M 74.316406 29.539062 C 74.71875 28.878906 75.214844 28.144531 75.972656 27.902344 C 76.550781 27.703125 77.308594 27.84375 77.527344 28.480469 C 77.765625 29.160156 77.429688 29.996094 76.910156 30.476562 C 76.273438 31.09375 75.433594 31.414062 74.957031 32.191406 C 74.4375 33.027344 74.339844 34.023438 74.257812 34.980469 C 74.199219 35.71875 75.335938 35.820312 75.394531 35.082031 C 75.453125 34.222656 75.515625 33.246094 76.09375 32.550781 C 76.390625 32.191406 76.832031 31.949219 77.210938 31.691406 C 77.628906 31.390625 78.007812 31.035156 78.265625 30.59375 C 78.785156 29.71875 78.984375 28.5625 78.40625 27.664062 C 77.886719 26.828125 76.851562 26.527344 75.914062 26.746094 C 74.777344 27.007812 74 27.921875 73.402344 28.878906 C 73.242188 29.140625 73.28125 29.480469 73.539062 29.679688 C 73.78125 29.855469 74.160156 29.796875 74.316406 29.539062 Z M 30.957031 20.046875 C 31.054688 19.113281 31.714844 18.3125 32.609375 18.015625 C 33.488281 17.714844 34.464844 18.074219 35.042969 18.773438 C 36.796875 20.886719 34.003906 23.296875 32.96875 24.992188 C 32.171875 26.289062 31.8125 27.765625 31.953125 29.300781 C 32.03125 30.15625 33.347656 29.996094 33.269531 29.140625 C 33.128906 27.683594 33.585938 26.367188 34.425781 25.191406 C 35.300781 23.957031 36.359375 22.820312 36.777344 21.304688 C 37.136719 19.949219 36.777344 18.59375 35.78125 17.617188 C 34.84375 16.699219 33.46875 16.339844 32.210938 16.738281 C 30.855469 17.15625 29.800781 18.453125 29.640625 19.867188 C 29.558594 20.726562 30.875 20.90625 30.957031 20.046875 Z M 33.226562 30.65625 C 32.808594 30.394531 32.25 30.535156 32.011719 30.953125 C 31.773438 31.371094 31.890625 31.929688 32.3125 32.171875 C 32.730469 32.429688 33.289062 32.289062 33.527344 31.871094 C 33.765625 31.453125 33.648438 30.894531 33.226562 30.65625 Z M 23.679688 33.40625 C 23.777344 32.769531 24.335938 32.328125 25.035156 32.527344 C 25.652344 32.6875 26.191406 33.367188 26.109375 34.042969 C 25.992188 34.960938 25.09375 35.597656 24.554688 36.277344 C 23.878906 37.132812 23.519531 38.132812 23.558594 39.226562 C 23.597656 40.085938 24.933594 40.066406 24.894531 39.207031 C 24.855469 38.3125 25.171875 37.59375 25.75 36.933594 C 26.390625 36.21875 27.109375 35.519531 27.367188 34.5625 C 27.824219 32.808594 26.210938 30.914062 24.375 31.191406 C 23.378906 31.332031 22.542969 32.109375 22.363281 33.105469 C 22.300781 33.464844 22.480469 33.824219 22.859375 33.925781 C 23.199219 33.964844 23.617188 33.765625 23.679688 33.40625 Z M 24.554688 41.082031 C 24.15625 40.78125 23.597656 40.863281 23.300781 41.261719 C 23 41.660156 23.082031 42.21875 23.480469 42.515625 C 23.878906 42.816406 24.4375 42.738281 24.734375 42.339844 C 25.035156 41.9375 24.953125 41.382812 24.554688 41.082031 Z M 74.199219 36.398438 C 73.800781 36.515625 73.582031 36.953125 73.699219 37.355469 C 73.820312 37.753906 74.257812 37.972656 74.65625 37.851562 C 75.054688 37.734375 75.273438 37.292969 75.15625 36.894531 C 75.035156 36.496094 74.597656 36.277344 74.199219 36.398438 Z M 49.398438 26.070312 C 50.035156 24.992188 50.832031 23.757812 52.089844 23.339844 C 53.046875 23 54.261719 23.199219 54.660156 24.234375 C 55.078125 25.351562 54.519531 26.746094 53.703125 27.542969 C 52.667969 28.5625 51.292969 29.121094 50.535156 30.4375 C 49.714844 31.832031 49.554688 33.464844 49.457031 35.0625 C 49.378906 36.257812 51.25 36.398438 51.3125 35.199219 C 51.390625 33.785156 51.449219 32.191406 52.367188 31.035156 C 52.847656 30.4375 53.542969 30.035156 54.160156 29.597656 C 54.839844 29.101562 55.457031 28.480469 55.875 27.742188 C 56.695312 26.289062 56.992188 24.394531 56.035156 22.917969 C 55.160156 21.5625 53.425781 21.085938 51.910156 21.464844 C 50.054688 21.921875 48.777344 23.457031 47.84375 25.050781 C 47.582031 25.492188 47.664062 26.050781 48.101562 26.347656 C 48.5 26.585938 49.136719 26.507812 49.398438 26.070312 Z M 49.398438 37.355469 C 48.738281 37.574219 48.378906 38.269531 48.597656 38.929688 C 48.820312 39.585938 49.515625 39.945312 50.175781 39.726562 C 50.832031 39.507812 51.191406 38.808594 50.972656 38.152344 C 50.753906 37.492188 50.054688 37.132812 49.398438 37.355469 Z M 44.015625 10.4375 C 44.195312 9.761719 44.851562 9.34375 45.589844 9.601562 C 46.246094 9.839844 46.785156 10.636719 46.605469 11.375 C 46.386719 12.371094 45.328125 12.992188 44.671875 13.667969 C 43.835938 14.527344 43.355469 15.601562 43.296875 16.796875 C 43.257812 17.753906 44.730469 17.855469 44.773438 16.898438 C 44.8125 15.921875 45.230469 15.144531 45.929688 14.484375 C 46.707031 13.75 47.5625 13.070312 47.921875 12.035156 C 48.597656 10.140625 47.003906 7.925781 44.972656 8.046875 C 43.875 8.105469 42.859375 8.863281 42.578125 9.960938 C 42.480469 10.339844 42.636719 10.757812 43.039062 10.898438 C 43.4375 11.015625 43.914062 10.816406 44.015625 10.4375 Z M 44.234375 18.953125 C 43.835938 18.59375 43.195312 18.632812 42.835938 19.03125 C 42.480469 19.429688 42.519531 20.066406 42.917969 20.425781 C 43.316406 20.785156 43.953125 20.746094 44.3125 20.347656 C 44.671875 19.929688 44.632812 19.3125 44.234375 18.953125 Z M 70.03125 17.375 C 70.332031 16.679688 71.1875 16.242188 72.046875 16.519531 C 72.824219 16.777344 73.382812 17.578125 73.082031 18.355469 C 72.703125 19.390625 71.328125 20.007812 70.449219 20.726562 C 69.335938 21.625 68.617188 22.71875 68.398438 23.957031 C 68.238281 24.933594 70.011719 25.03125 70.191406 24.054688 C 70.351562 23.058594 70.949219 22.261719 71.90625 21.5625 C 72.941406 20.804688 74.078125 20.109375 74.636719 19.03125 C 75.675781 17.097656 74 14.804688 71.507812 14.925781 C 70.152344 14.984375 68.835938 15.78125 68.355469 16.898438 C 68.199219 17.296875 68.335938 17.714844 68.816406 17.855469 C 69.253906 17.976562 69.851562 17.777344 70.03125 17.375 Z M 69.273438 26.148438 C 68.816406 25.769531 68.058594 25.808594 67.558594 26.230469 C 67.0625 26.648438 67.042969 27.285156 67.5 27.664062 C 67.957031 28.042969 68.714844 28.003906 69.214844 27.585938 C 69.714844 27.144531 69.734375 26.507812 69.273438 26.148438 Z M 61.660156 9.101562 C 61.878906 8.484375 62.535156 8.144531 63.195312 8.464844 C 63.792969 8.742188 64.210938 9.542969 63.992188 10.21875 C 63.691406 11.136719 62.65625 11.613281 61.976562 12.191406 C 61.121094 12.929688 60.582031 13.886719 60.421875 15.003906 C 60.300781 15.882812 61.660156 16.121094 61.796875 15.222656 C 61.917969 14.304688 62.375 13.628906 63.09375 13.070312 C 63.890625 12.453125 64.75 11.894531 65.1875 10.957031 C 65.984375 9.242188 64.6875 7.03125 62.773438 6.96875 C 61.738281 6.929688 60.722656 7.566406 60.382812 8.542969 C 60.261719 8.902344 60.382812 9.300781 60.742188 9.460938 C 61.058594 9.601562 61.539062 9.460938 61.660156 9.101562 Z M 61.121094 17.097656 C 60.78125 16.71875 60.183594 16.699219 59.804688 17.058594 C 59.425781 17.398438 59.40625 17.996094 59.765625 18.375 C 60.101562 18.753906 60.703125 18.773438 61.082031 18.414062 C 61.457031 18.054688 61.457031 17.476562 61.121094 17.097656 Z M 13.609375 22.183594 C 13.730469 21.644531 14.25 21.304688 14.828125 21.503906 C 15.34375 21.683594 15.761719 22.300781 15.644531 22.878906 C 15.484375 23.65625 14.6875 24.15625 14.167969 24.695312 C 13.53125 25.371094 13.171875 26.207031 13.152344 27.144531 C 13.132812 27.882812 14.269531 27.945312 14.289062 27.207031 C 14.308594 26.449219 14.605469 25.832031 15.164062 25.3125 C 15.761719 24.734375 16.421875 24.195312 16.679688 23.378906 C 17.179688 21.902344 15.921875 20.207031 14.347656 20.328125 C 13.492188 20.386719 12.714844 21.003906 12.511719 21.84375 C 12.433594 22.140625 12.574219 22.460938 12.890625 22.558594 C 13.171875 22.640625 13.53125 22.480469 13.609375 22.183594 Z M 13.890625 28.800781 C 13.570312 28.523438 13.089844 28.5625 12.8125 28.878906 C 12.535156 29.199219 12.574219 29.679688 12.890625 29.957031 C 13.210938 30.234375 13.691406 30.195312 13.96875 29.878906 C 14.25 29.558594 14.207031 29.058594 13.890625 28.800781 Z M 84.546875 17.535156 C 84.707031 17.117188 85.164062 16.878906 85.621094 17.117188 C 86.019531 17.316406 86.320312 17.875 86.160156 18.332031 C 85.941406 18.953125 85.222656 19.269531 84.746094 19.667969 C 84.148438 20.167969 83.769531 20.824219 83.648438 21.582031 C 83.550781 22.183594 84.484375 22.359375 84.585938 21.761719 C 84.6875 21.144531 85.003906 20.667969 85.503906 20.289062 C 86.0625 19.867188 86.660156 19.488281 86.957031 18.851562 C 87.515625 17.695312 86.660156 16.140625 85.363281 16.082031 C 84.644531 16.042969 83.949219 16.460938 83.6875 17.136719 C 83.589844 17.375 83.667969 17.65625 83.929688 17.777344 C 84.128906 17.875 84.445312 17.796875 84.546875 17.535156 Z M 84.066406 23.039062 C 83.828125 22.78125 83.429688 22.761719 83.171875 23 C 82.910156 23.238281 82.890625 23.636719 83.128906 23.894531 C 83.371094 24.15625 83.769531 24.175781 84.027344 23.9375 C 84.265625 23.695312 84.308594 23.296875 84.066406 23.039062 Z M 84.066406 23.039062 " fill-opacity="1" fill-rule="nonzero"/><path fill="#b7e402" d="M 36.257812 46.464844 C 37.195312 46.304688 37.59375 47.742188 36.65625 47.902344 C 34.304688 48.277344 31.933594 48.539062 29.539062 48.617188 C 24.855469 48.757812 19.988281 48.359375 15.445312 47.183594 C 11.714844 46.226562 8.1875 44.390625 5.554688 41.539062 C 3.144531 38.949219 1.667969 35.558594 1.328125 32.050781 C 0.96875 28.421875 1.308594 24.472656 2.523438 21.023438 C 3.183594 19.171875 4.019531 17.355469 5.257812 15.820312 C 6.453125 14.328125 7.90625 13.011719 9.441406 11.835938 C 12.492188 9.480469 16.023438 7.789062 19.652344 6.53125 C 23.417969 5.234375 27.347656 4.417969 31.273438 3.800781 C 36.097656 3.042969 40.945312 2.402344 45.808594 1.925781 C 55.398438 0.988281 65.207031 0.710938 74.816406 1.867188 C 78.566406 2.304688 82.273438 3.300781 85.703125 4.894531 C 89.410156 6.628906 92.402344 9.324219 94.773438 12.652344 C 96.765625 15.441406 98.101562 18.710938 98.324219 22.160156 C 98.480469 24.714844 98.003906 27.285156 97.085938 29.679688 C 96.6875 30.695312 96.25 31.75 95.710938 32.6875 C 94.753906 34.324219 93.339844 35.71875 91.863281 36.894531 C 88.613281 39.507812 84.644531 41.101562 80.71875 42.398438 C 76.472656 43.792969 72.085938 44.691406 67.660156 45.289062 C 65.425781 45.585938 63.195312 45.828125 60.960938 45.988281 C 59.84375 46.066406 58.746094 46.144531 57.632812 46.207031 C 56.515625 46.265625 55.359375 46.207031 54.261719 46.367188 C 53.425781 46.484375 53.605469 48.101562 53.503906 48.777344 C 53.363281 49.792969 53.125 50.769531 52.804688 51.75 C 52.207031 53.601562 51.332031 55.375 50.3125 57.050781 C 48.160156 60.558594 45.351562 63.628906 42.539062 66.621094 C 42.039062 67.140625 41.042969 66.601562 41.28125 65.902344 C 42.835938 61.457031 43.59375 56.773438 43.496094 52.046875 C 43.476562 50.851562 43.375 49.675781 43.238281 48.480469 C 43.195312 48.179688 43.15625 47.878906 43.117188 47.582031 C 43.136719 47.660156 43.015625 46.882812 43.117188 47.003906 C 42.996094 46.902344 42.300781 47.0625 42.140625 47.082031 C 40.304688 47.34375 38.492188 47.640625 36.65625 47.921875 C 35.71875 48.039062 35.300781 46.605469 36.257812 46.464844 C 38.3125 46.164062 40.367188 45.765625 42.4375 45.527344 C 43.296875 45.429688 44.09375 45.527344 44.414062 46.464844 C 44.8125 47.640625 44.8125 49.136719 44.890625 50.371094 C 45.25 55.753906 44.492188 61.179688 42.71875 66.261719 C 42.300781 66.023438 41.878906 65.785156 41.460938 65.542969 C 42.796875 64.128906 44.113281 62.695312 45.371094 61.21875 C 47.84375 58.289062 50.15625 55.039062 51.332031 51.371094 C 51.648438 50.390625 51.890625 49.394531 52.027344 48.398438 C 52.148438 47.582031 52.046875 46.605469 52.488281 45.847656 C 52.925781 45.089844 53.722656 44.910156 54.539062 44.871094 C 55.597656 44.808594 56.675781 44.769531 57.730469 44.710938 C 66.304688 44.230469 74.976562 43.09375 83.03125 39.964844 C 86.738281 38.53125 90.289062 36.714844 93.019531 33.746094 C 94.652344 31.972656 95.652344 29.617188 96.269531 27.304688 C 96.945312 24.792969 97.027344 22.160156 96.410156 19.628906 C 95.492188 15.902344 93.21875 12.671875 90.527344 10 C 84.984375 4.476562 76.609375 3.320312 69.15625 2.863281 C 59.863281 2.285156 50.574219 2.804688 41.34375 3.898438 C 33.1875 4.855469 24.675781 5.8125 17.058594 9.101562 C 13.691406 10.558594 10.519531 12.511719 7.90625 15.105469 C 5.214844 17.777344 3.640625 21.203125 3.042969 24.933594 C 2.484375 28.460938 2.425781 32.25 3.640625 35.660156 C 4.796875 38.890625 7.152344 41.519531 10.019531 43.355469 C 13.589844 45.628906 17.957031 46.367188 22.101562 46.824219 C 26.808594 47.34375 31.574219 47.242188 36.257812 46.464844 Z M 74.316406 29.539062 C 74.71875 28.878906 75.214844 28.144531 75.972656 27.902344 C 76.550781 27.703125 77.308594 27.84375 77.527344 28.480469 C 77.765625 29.160156 77.429688 29.996094 76.910156 30.476562 C 76.273438 31.09375 75.433594 31.414062 74.957031 32.191406 C 74.4375 33.027344 74.339844 34.023438 74.257812 34.980469 C 74.199219 35.71875 75.335938 35.820312 75.394531 35.082031 C 75.453125 34.222656 75.515625 33.246094 76.09375 32.550781 C 76.390625 32.191406 76.832031 31.949219 77.210938 31.691406 C 77.628906 31.390625 78.007812 31.035156 78.265625 30.59375 C 78.785156 29.71875 78.984375 28.5625 78.40625 27.664062 C 77.886719 26.828125 76.851562 26.527344 75.914062 26.746094 C 74.777344 27.007812 74 27.921875 73.402344 28.878906 C 73.242188 29.140625 73.28125 29.480469 73.539062 29.679688 C 73.78125 29.855469 74.160156 29.796875 74.316406 29.539062 Z M 30.957031 20.046875 C 31.054688 19.113281 31.714844 18.3125 32.609375 18.015625 C 33.488281 17.714844 34.464844 18.074219 35.042969 18.773438 C 36.796875 20.886719 34.003906 23.296875 32.96875 24.992188 C 32.171875 26.289062 31.8125 27.765625 31.953125 29.300781 C 32.03125 30.15625 33.347656 29.996094 33.269531 29.140625 C 33.128906 27.683594 33.585938 26.367188 34.425781 25.191406 C 35.300781 23.957031 36.359375 22.820312 36.777344 21.304688 C 37.136719 19.949219 36.777344 18.59375 35.78125 17.617188 C 34.84375 16.699219 33.46875 16.339844 32.210938 16.738281 C 30.855469 17.15625 29.800781 18.453125 29.640625 19.867188 C 29.558594 20.726562 30.875 20.90625 30.957031 20.046875 Z M 33.226562 30.65625 C 32.808594 30.394531 32.25 30.535156 32.011719 30.953125 C 31.773438 31.371094 31.890625 31.929688 32.3125 32.171875 C 32.730469 32.429688 33.289062 32.289062 33.527344 31.871094 C 33.765625 31.453125 33.648438 30.894531 33.226562 30.65625 Z M 23.679688 33.40625 C 23.777344 32.769531 24.335938 32.328125 25.035156 32.527344 C 25.652344 32.6875 26.191406 33.367188 26.109375 34.042969 C 25.992188 34.960938 25.09375 35.597656 24.554688 36.277344 C 23.878906 37.132812 23.519531 38.132812 23.558594 39.226562 C 23.597656 40.085938 24.933594 40.066406 24.894531 39.207031 C 24.855469 38.3125 25.171875 37.59375 25.75 36.933594 C 26.390625 36.21875 27.109375 35.519531 27.367188 34.5625 C 27.824219 32.808594 26.210938 30.914062 24.375 31.191406 C 23.378906 31.332031 22.542969 32.109375 22.363281 33.105469 C 22.300781 33.464844 22.480469 33.824219 22.859375 33.925781 C 23.199219 33.964844 23.617188 33.765625 23.679688 33.40625 Z M 24.554688 41.082031 C 24.15625 40.78125 23.597656 40.863281 23.300781 41.261719 C 23 41.660156 23.082031 42.21875 23.480469 42.515625 C 23.878906 42.816406 24.4375 42.738281 24.734375 42.339844 C 25.035156 41.9375 24.953125 41.382812 24.554688 41.082031 Z M 74.199219 36.398438 C 73.800781 36.515625 73.582031 36.953125 73.699219 37.355469 C 73.820312 37.753906 74.257812 37.972656 74.65625 37.851562 C 75.054688 37.734375 75.273438 37.292969 75.15625 36.894531 C 75.035156 36.496094 74.597656 36.277344 74.199219 36.398438 Z M 49.398438 26.070312 C 50.035156 24.992188 50.832031 23.757812 52.089844 23.339844 C 53.046875 23 54.261719 23.199219 54.660156 24.234375 C 55.078125 25.351562 54.519531 26.746094 53.703125 27.542969 C 52.667969 28.5625 51.292969 29.121094 50.535156 30.4375 C 49.714844 31.832031 49.554688 33.464844 49.457031 35.0625 C 49.378906 36.257812 51.25 36.398438 51.3125 35.199219 C 51.390625 33.785156 51.449219 32.191406 52.367188 31.035156 C 52.847656 30.4375 53.542969 30.035156 54.160156 29.597656 C 54.839844 29.101562 55.457031 28.480469 55.875 27.742188 C 56.695312 26.289062 56.992188 24.394531 56.035156 22.917969 C 55.160156 21.5625 53.425781 21.085938 51.910156 21.464844 C 50.054688 21.921875 48.777344 23.457031 47.84375 25.050781 C 47.582031 25.492188 47.664062 26.050781 48.101562 26.347656 C 48.5 26.585938 49.136719 26.507812 49.398438 26.070312 Z M 49.398438 37.355469 C 48.738281 37.574219 48.378906 38.269531 48.597656 38.929688 C 48.820312 39.585938 49.515625 39.945312 50.175781 39.726562 C 50.832031 39.507812 51.191406 38.808594 50.972656 38.152344 C 50.753906 37.492188 50.054688 37.132812 49.398438 37.355469 Z M 44.015625 10.4375 C 44.195312 9.761719 44.851562 9.34375 45.589844 9.601562 C 46.246094 9.839844 46.785156 10.636719 46.605469 11.375 C 46.386719 12.371094 45.328125 12.992188 44.671875 13.667969 C 43.835938 14.527344 43.355469 15.601562 43.296875 16.796875 C 43.257812 17.753906 44.730469 17.855469 44.773438 16.898438 C 44.8125 15.921875 45.230469 15.144531 45.929688 14.484375 C 46.707031 13.75 47.5625 13.070312 47.921875 12.035156 C 48.597656 10.140625 47.003906 7.925781 44.972656 8.046875 C 43.875 8.105469 42.859375 8.863281 42.578125 9.960938 C 42.480469 10.339844 42.636719 10.757812 43.039062 10.898438 C 43.4375 11.015625 43.914062 10.816406 44.015625 10.4375 Z M 44.234375 18.953125 C 43.835938 18.59375 43.195312 18.632812 42.835938 19.03125 C 42.480469 19.429688 42.519531 20.066406 42.917969 20.425781 C 43.316406 20.785156 43.953125 20.746094 44.3125 20.347656 C 44.671875 19.929688 44.632812 19.3125 44.234375 18.953125 Z M 70.03125 17.375 C 70.332031 16.679688 71.1875 16.242188 72.046875 16.519531 C 72.824219 16.777344 73.382812 17.578125 73.082031 18.355469 C 72.703125 19.390625 71.328125 20.007812 70.449219 20.726562 C 69.335938 21.625 68.617188 22.71875 68.398438 23.957031 C 68.238281 24.933594 70.011719 25.03125 70.191406 24.054688 C 70.351562 23.058594 70.949219 22.261719 71.90625 21.5625 C 72.941406 20.804688 74.078125 20.109375 74.636719 19.03125 C 75.675781 17.097656 74 14.804688 71.507812 14.925781 C 70.152344 14.984375 68.835938 15.78125 68.355469 16.898438 C 68.199219 17.296875 68.335938 17.714844 68.816406 17.855469 C 69.253906 17.976562 69.851562 17.777344 70.03125 17.375 Z M 69.273438 26.148438 C 68.816406 25.769531 68.058594 25.808594 67.558594 26.230469 C 67.0625 26.648438 67.042969 27.285156 67.5 27.664062 C 67.957031 28.042969 68.714844 28.003906 69.214844 27.585938 C 69.714844 27.144531 69.734375 26.507812 69.273438 26.148438 Z M 61.660156 9.101562 C 61.878906 8.484375 62.535156 8.144531 63.195312 8.464844 C 63.792969 8.742188 64.210938 9.542969 63.992188 10.21875 C 63.691406 11.136719 62.65625 11.613281 61.976562 12.191406 C 61.121094 12.929688 60.582031 13.886719 60.421875 15.003906 C 60.300781 15.882812 61.660156 16.121094 61.796875 15.222656 C 61.917969 14.304688 62.375 13.628906 63.09375 13.070312 C 63.890625 12.453125 64.75 11.894531 65.1875 10.957031 C 65.984375 9.242188 64.6875 7.03125 62.773438 6.96875 C 61.738281 6.929688 60.722656 7.566406 60.382812 8.542969 C 60.261719 8.902344 60.382812 9.300781 60.742188 9.460938 C 61.058594 9.601562 61.539062 9.460938 61.660156 9.101562 Z M 61.121094 17.097656 C 60.78125 16.71875 60.183594 16.699219 59.804688 17.058594 C 59.425781 17.398438 59.40625 17.996094 59.765625 18.375 C 60.101562 18.753906 60.703125 18.773438 61.082031 18.414062 C 61.457031 18.054688 61.457031 17.476562 61.121094 17.097656 Z M 13.609375 22.183594 C 13.730469 21.644531 14.25 21.304688 14.828125 21.503906 C 15.34375 21.683594 15.761719 22.300781 15.644531 22.878906 C 15.484375 23.65625 14.6875 24.15625 14.167969 24.695312 C 13.53125 25.371094 13.171875 26.207031 13.152344 27.144531 C 13.132812 27.882812 14.269531 27.945312 14.289062 27.207031 C 14.308594 26.449219 14.605469 25.832031 15.164062 25.3125 C 15.761719 24.734375 16.421875 24.195312 16.679688 23.378906 C 17.179688 21.902344 15.921875 20.207031 14.347656 20.328125 C 13.492188 20.386719 12.714844 21.003906 12.511719 21.84375 C 12.433594 22.140625 12.574219 22.460938 12.890625 22.558594 C 13.171875 22.640625 13.53125 22.480469 13.609375 22.183594 Z M 13.890625 28.800781 C 13.570312 28.523438 13.089844 28.5625 12.8125 28.878906 C 12.535156 29.199219 12.574219 29.679688 12.890625 29.957031 C 13.210938 30.234375 13.691406 30.195312 13.96875 29.878906 C 14.25 29.558594 14.207031 29.058594 13.890625 28.800781 Z M 84.546875 17.535156 C 84.707031 17.117188 85.164062 16.878906 85.621094 17.117188 C 86.019531 17.316406 86.320312 17.875 86.160156 18.332031 C 85.941406 18.953125 85.222656 19.269531 84.746094 19.667969 C 84.148438 20.167969 83.769531 20.824219 83.648438 21.582031 C 83.550781 22.183594 84.484375 22.359375 84.585938 21.761719 C 84.6875 21.144531 85.003906 20.667969 85.503906 20.289062 C 86.0625 19.867188 86.660156 19.488281 86.957031 18.851562 C 87.515625 17.695312 86.660156 16.140625 85.363281 16.082031 C 84.644531 16.042969 83.949219 16.460938 83.6875 17.136719 C 83.589844 17.375 83.667969 17.65625 83.929688 17.777344 C 84.128906 17.875 84.445312 17.796875 84.546875 17.535156 Z M 84.066406 23.039062 C 83.828125 22.78125 83.429688 22.761719 83.171875 23 C 82.910156 23.238281 82.890625 23.636719 83.128906 23.894531 C 83.371094 24.15625 83.769531 24.175781 84.027344 23.9375 C 84.265625 23.695312 84.308594 23.296875 84.066406 23.039062 Z M 84.066406 23.039062 " fill-opacity="1" fill-rule="nonzero"/></g></svg>