<svg xmlns="http://www.w3.org/2000/svg" xmlns:xlink="http://www.w3.org/1999/xlink" width="120" zoomAndPan="magnify" viewBox="0 0 90 89.999999" height="120" preserveAspectRatio="xMidYMid meet" version="1.0"><defs><clipPath id="df3e5a1352"><path d="M 0.277344 0.171875 L 89.527344 0.171875 L 89.527344 89.421875 L 0.277344 89.421875 Z M 0.277344 0.171875 " clip-rule="nonzero"/></clipPath><clipPath id="1d0991f640"><path d="M 0.269531 0.171875 L 89.519531 0.171875 L 89.519531 89.421875 L 0.269531 89.421875 Z M 0.269531 0.171875 " clip-rule="nonzero"/></clipPath></defs><g clip-path="url(#df3e5a1352)"><path fill="#7600bd" d="M 78.53125 11.371094 L 78.53125 8.578125 C 78.515625 8.035156 78.453125 7.5 78.335938 6.96875 C 78.222656 6.4375 78.054688 5.925781 77.839844 5.425781 C 77.625 4.929688 77.363281 4.457031 77.054688 4.007812 C 76.746094 3.5625 76.398438 3.148438 76.011719 2.769531 C 75.621094 2.390625 75.203125 2.050781 74.746094 1.753906 C 74.292969 1.457031 73.816406 1.203125 73.3125 1 C 72.8125 0.792969 72.292969 0.640625 71.761719 0.535156 C 71.226562 0.429688 70.691406 0.378906 70.148438 0.378906 C 69.605469 0.378906 69.066406 0.429688 68.535156 0.535156 C 68.003906 0.640625 67.484375 0.792969 66.980469 1 C 66.480469 1.203125 66 1.457031 65.546875 1.753906 C 65.09375 2.050781 64.671875 2.390625 64.285156 2.769531 C 63.898438 3.148438 63.550781 3.5625 63.242188 4.007812 C 62.933594 4.457031 62.671875 4.929688 62.457031 5.425781 C 62.238281 5.925781 62.074219 6.4375 61.957031 6.96875 C 61.84375 7.5 61.777344 8.035156 61.765625 8.578125 L 61.765625 11.371094 L 53.382812 11.371094 L 53.382812 8.578125 C 53.382812 8.027344 53.328125 7.484375 53.222656 6.941406 C 53.113281 6.402344 52.953125 5.878906 52.746094 5.371094 C 52.535156 4.863281 52.277344 4.378906 51.96875 3.921875 C 51.664062 3.464844 51.316406 3.042969 50.925781 2.652344 C 50.539062 2.261719 50.117188 1.914062 49.65625 1.609375 C 49.199219 1.304688 48.71875 1.046875 48.210938 0.835938 C 47.699219 0.625 47.175781 0.464844 46.636719 0.359375 C 46.097656 0.25 45.550781 0.199219 45.003906 0.199219 C 44.453125 0.199219 43.90625 0.25 43.367188 0.359375 C 42.828125 0.464844 42.304688 0.625 41.796875 0.835938 C 41.289062 1.046875 40.804688 1.304688 40.347656 1.609375 C 39.890625 1.914062 39.464844 2.261719 39.078125 2.652344 C 38.6875 3.042969 38.339844 3.464844 38.035156 3.921875 C 37.730469 4.378906 37.472656 4.863281 37.261719 5.371094 C 37.050781 5.878906 36.890625 6.402344 36.785156 6.941406 C 36.675781 7.484375 36.621094 8.027344 36.621094 8.578125 L 36.621094 11.371094 L 28.238281 11.371094 L 28.238281 8.578125 C 28.226562 8.035156 28.164062 7.5 28.046875 6.96875 C 27.929688 6.4375 27.765625 5.925781 27.546875 5.425781 C 27.332031 4.929688 27.070312 4.457031 26.761719 4.007812 C 26.457031 3.5625 26.109375 3.148438 25.71875 2.769531 C 25.332031 2.390625 24.910156 2.050781 24.457031 1.753906 C 24.003906 1.457031 23.523438 1.203125 23.023438 1 C 22.519531 0.792969 22.003906 0.640625 21.46875 0.535156 C 20.9375 0.429688 20.398438 0.378906 19.855469 0.378906 C 19.3125 0.378906 18.777344 0.429688 18.242188 0.535156 C 17.710938 0.640625 17.195312 0.792969 16.691406 1 C 16.1875 1.203125 15.710938 1.457031 15.257812 1.753906 C 14.804688 2.050781 14.382812 2.390625 13.996094 2.769531 C 13.605469 3.148438 13.257812 3.5625 12.949219 4.007812 C 12.644531 4.457031 12.382812 4.929688 12.164062 5.425781 C 11.949219 5.925781 11.785156 6.4375 11.667969 6.96875 C 11.550781 7.5 11.488281 8.035156 11.476562 8.578125 L 11.476562 11.371094 C 10.742188 11.371094 10.015625 11.445312 9.296875 11.585938 C 8.578125 11.730469 7.878906 11.941406 7.203125 12.222656 C 6.527344 12.503906 5.882812 12.847656 5.273438 13.257812 C 4.664062 13.664062 4.097656 14.125 3.582031 14.644531 C 3.0625 15.164062 2.597656 15.726562 2.191406 16.335938 C 1.785156 16.945312 1.4375 17.585938 1.15625 18.265625 C 0.875 18.941406 0.664062 19.640625 0.519531 20.359375 C 0.375 21.078125 0.304688 21.804688 0.300781 22.535156 L 0.300781 78.425781 C 0.304688 79.160156 0.375 79.886719 0.519531 80.605469 C 0.664062 81.324219 0.875 82.023438 1.15625 82.699219 C 1.4375 83.375 1.78125 84.019531 2.1875 84.628906 C 2.597656 85.238281 3.058594 85.804688 3.578125 86.324219 C 4.097656 86.839844 4.660156 87.304688 5.269531 87.710938 C 5.878906 88.121094 6.523438 88.464844 7.203125 88.746094 C 7.878906 89.027344 8.578125 89.238281 9.296875 89.382812 C 10.015625 89.527344 10.742188 89.597656 11.476562 89.597656 L 78.53125 89.597656 C 79.261719 89.597656 79.988281 89.527344 80.707031 89.382812 C 81.425781 89.238281 82.125 89.027344 82.804688 88.746094 C 83.480469 88.464844 84.125 88.121094 84.734375 87.710938 C 85.34375 87.304688 85.90625 86.839844 86.425781 86.324219 C 86.945312 85.804688 87.40625 85.238281 87.816406 84.628906 C 88.222656 84.019531 88.566406 83.375 88.847656 82.699219 C 89.128906 82.023438 89.34375 81.324219 89.484375 80.605469 C 89.628906 79.886719 89.703125 79.160156 89.703125 78.425781 L 89.703125 22.535156 C 89.703125 21.804688 89.628906 21.078125 89.484375 20.359375 C 89.339844 19.640625 89.128906 18.941406 88.847656 18.265625 C 88.566406 17.585938 88.222656 16.945312 87.8125 16.335938 C 87.40625 15.726562 86.941406 15.164062 86.421875 14.644531 C 85.90625 14.125 85.339844 13.664062 84.730469 13.257812 C 84.121094 12.847656 83.480469 12.503906 82.800781 12.222656 C 82.125 11.941406 81.425781 11.730469 80.707031 11.585938 C 79.988281 11.445312 79.261719 11.371094 78.53125 11.371094 Z M 65.957031 8.578125 C 65.949219 8.296875 65.96875 8.019531 66.015625 7.742188 C 66.0625 7.464844 66.136719 7.195312 66.238281 6.933594 C 66.339844 6.671875 66.464844 6.421875 66.617188 6.1875 C 66.769531 5.949219 66.941406 5.730469 67.136719 5.53125 C 67.332031 5.328125 67.546875 5.148438 67.777344 4.988281 C 68.011719 4.832031 68.253906 4.695312 68.511719 4.585938 C 68.773438 4.476562 69.039062 4.394531 69.3125 4.339844 C 69.589844 4.285156 69.867188 4.253906 70.148438 4.253906 C 70.429688 4.253906 70.707031 4.285156 70.980469 4.339844 C 71.257812 4.394531 71.523438 4.476562 71.78125 4.585938 C 72.039062 4.695312 72.285156 4.832031 72.515625 4.988281 C 72.75 5.148438 72.960938 5.328125 73.15625 5.53125 C 73.351562 5.730469 73.527344 5.949219 73.679688 6.1875 C 73.828125 6.421875 73.957031 6.671875 74.058594 6.933594 C 74.160156 7.195312 74.234375 7.464844 74.28125 7.742188 C 74.328125 8.019531 74.347656 8.296875 74.335938 8.578125 L 74.335938 18.007812 C 74.347656 18.289062 74.328125 18.566406 74.28125 18.84375 C 74.234375 19.121094 74.160156 19.386719 74.058594 19.648438 C 73.957031 19.914062 73.828125 20.160156 73.679688 20.398438 C 73.527344 20.632812 73.351562 20.851562 73.15625 21.054688 C 72.960938 21.257812 72.75 21.4375 72.515625 21.59375 C 72.285156 21.753906 72.039062 21.886719 71.78125 21.996094 C 71.523438 22.105469 71.257812 22.1875 70.980469 22.246094 C 70.707031 22.300781 70.429688 22.328125 70.148438 22.328125 C 69.867188 22.328125 69.589844 22.300781 69.3125 22.246094 C 69.039062 22.1875 68.773438 22.105469 68.511719 21.996094 C 68.253906 21.886719 68.011719 21.753906 67.777344 21.59375 C 67.546875 21.4375 67.332031 21.257812 67.136719 21.054688 C 66.941406 20.851562 66.769531 20.632812 66.617188 20.398438 C 66.464844 20.160156 66.339844 19.914062 66.238281 19.648438 C 66.136719 19.386719 66.0625 19.121094 66.015625 18.84375 C 65.96875 18.566406 65.949219 18.289062 65.957031 18.007812 Z M 40.808594 8.578125 C 40.808594 8.300781 40.835938 8.03125 40.890625 7.757812 C 40.945312 7.488281 41.023438 7.226562 41.128906 6.972656 C 41.234375 6.71875 41.363281 6.476562 41.515625 6.246094 C 41.667969 6.019531 41.84375 5.804688 42.035156 5.609375 C 42.230469 5.417969 42.441406 5.242188 42.671875 5.089844 C 42.902344 4.9375 43.144531 4.808594 43.398438 4.703125 C 43.652344 4.597656 43.914062 4.515625 44.183594 4.460938 C 44.453125 4.410156 44.726562 4.382812 45.003906 4.382812 C 45.277344 4.382812 45.550781 4.410156 45.820312 4.460938 C 46.089844 4.515625 46.351562 4.597656 46.609375 4.703125 C 46.863281 4.808594 47.105469 4.9375 47.332031 5.089844 C 47.5625 5.242188 47.773438 5.417969 47.96875 5.609375 C 48.164062 5.804688 48.335938 6.019531 48.488281 6.246094 C 48.640625 6.476562 48.769531 6.71875 48.875 6.972656 C 48.980469 7.226562 49.0625 7.488281 49.113281 7.757812 C 49.167969 8.03125 49.195312 8.300781 49.195312 8.578125 L 49.195312 18.007812 C 49.195312 18.28125 49.167969 18.554688 49.113281 18.824219 C 49.0625 19.09375 48.980469 19.359375 48.875 19.613281 C 48.769531 19.867188 48.640625 20.109375 48.488281 20.335938 C 48.335938 20.566406 48.164062 20.777344 47.96875 20.972656 C 47.773438 21.167969 47.5625 21.34375 47.332031 21.496094 C 47.105469 21.648438 46.863281 21.777344 46.609375 21.882812 C 46.351562 21.988281 46.089844 22.066406 45.820312 22.121094 C 45.550781 22.175781 45.277344 22.203125 45.003906 22.203125 C 44.726562 22.203125 44.453125 22.175781 44.183594 22.121094 C 43.914062 22.066406 43.652344 21.988281 43.398438 21.882812 C 43.144531 21.777344 42.902344 21.648438 42.671875 21.496094 C 42.441406 21.34375 42.230469 21.167969 42.035156 20.972656 C 41.84375 20.777344 41.667969 20.566406 41.515625 20.335938 C 41.363281 20.109375 41.234375 19.867188 41.128906 19.613281 C 41.023438 19.359375 40.945312 19.09375 40.890625 18.824219 C 40.835938 18.554688 40.808594 18.28125 40.808594 18.007812 Z M 15.667969 8.578125 C 15.660156 8.296875 15.675781 8.019531 15.726562 7.742188 C 15.773438 7.464844 15.847656 7.195312 15.949219 6.933594 C 16.050781 6.671875 16.175781 6.421875 16.328125 6.1875 C 16.476562 5.949219 16.652344 5.730469 16.847656 5.53125 C 17.042969 5.328125 17.257812 5.148438 17.488281 4.988281 C 17.71875 4.832031 17.964844 4.695312 18.222656 4.585938 C 18.480469 4.476562 18.746094 4.394531 19.023438 4.339844 C 19.296875 4.285156 19.578125 4.253906 19.855469 4.253906 C 20.136719 4.253906 20.414062 4.285156 20.691406 4.339844 C 20.964844 4.394531 21.234375 4.476562 21.492188 4.585938 C 21.75 4.695312 21.996094 4.832031 22.226562 4.988281 C 22.457031 5.148438 22.671875 5.328125 22.867188 5.53125 C 23.0625 5.730469 23.234375 5.949219 23.386719 6.1875 C 23.539062 6.421875 23.664062 6.671875 23.765625 6.933594 C 23.867188 7.195312 23.941406 7.464844 23.988281 7.742188 C 24.035156 8.019531 24.054688 8.296875 24.046875 8.578125 L 24.046875 18.007812 C 24.054688 18.289062 24.035156 18.566406 23.988281 18.84375 C 23.941406 19.121094 23.867188 19.386719 23.765625 19.648438 C 23.664062 19.914062 23.539062 20.160156 23.386719 20.398438 C 23.234375 20.632812 23.0625 20.851562 22.867188 21.054688 C 22.671875 21.257812 22.457031 21.4375 22.226562 21.59375 C 21.996094 21.753906 21.75 21.886719 21.492188 21.996094 C 21.234375 22.105469 20.964844 22.1875 20.691406 22.246094 C 20.414062 22.300781 20.136719 22.328125 19.855469 22.328125 C 19.578125 22.328125 19.296875 22.300781 19.023438 22.246094 C 18.746094 22.1875 18.480469 22.105469 18.222656 21.996094 C 17.964844 21.886719 17.71875 21.753906 17.488281 21.59375 C 17.257812 21.4375 17.042969 21.257812 16.847656 21.054688 C 16.652344 20.851562 16.476562 20.632812 16.328125 20.398438 C 16.175781 20.160156 16.050781 19.914062 15.949219 19.648438 C 15.847656 19.386719 15.773438 19.121094 15.726562 18.84375 C 15.675781 18.566406 15.660156 18.289062 15.667969 18.007812 Z M 85.515625 78.425781 C 85.515625 78.882812 85.46875 79.339844 85.378906 79.789062 C 85.289062 80.238281 85.15625 80.671875 84.980469 81.097656 C 84.804688 81.519531 84.589844 81.921875 84.335938 82.304688 C 84.082031 82.683594 83.789062 83.039062 83.464844 83.363281 C 83.140625 83.6875 82.789062 83.976562 82.410156 84.230469 C 82.027344 84.484375 81.625 84.699219 81.203125 84.875 C 80.777344 85.050781 80.339844 85.183594 79.890625 85.273438 C 79.441406 85.363281 78.988281 85.410156 78.53125 85.410156 L 11.476562 85.410156 C 11.015625 85.410156 10.5625 85.363281 10.113281 85.273438 C 9.664062 85.183594 9.226562 85.050781 8.804688 84.875 C 8.378906 84.699219 7.976562 84.484375 7.597656 84.230469 C 7.214844 83.976562 6.863281 83.6875 6.539062 83.363281 C 6.214844 83.039062 5.925781 82.683594 5.667969 82.304688 C 5.414062 81.921875 5.199219 81.519531 5.023438 81.097656 C 4.847656 80.671875 4.714844 80.238281 4.625 79.789062 C 4.535156 79.339844 4.492188 78.882812 4.488281 78.425781 L 4.488281 22.535156 C 4.492188 22.078125 4.539062 21.625 4.628906 21.175781 C 4.71875 20.726562 4.851562 20.289062 5.027344 19.867188 C 5.203125 19.445312 5.417969 19.042969 5.675781 18.664062 C 5.929688 18.28125 6.21875 17.929688 6.542969 17.605469 C 6.867188 17.285156 7.21875 16.996094 7.601562 16.738281 C 7.980469 16.484375 8.382812 16.269531 8.804688 16.09375 C 9.230469 15.921875 9.664062 15.789062 10.113281 15.699219 C 10.5625 15.609375 11.015625 15.5625 11.476562 15.5625 L 11.476562 18.003906 C 11.460938 18.5625 11.503906 19.113281 11.605469 19.664062 C 11.703125 20.214844 11.855469 20.746094 12.058594 21.265625 C 12.265625 21.785156 12.519531 22.28125 12.824219 22.75 C 13.125 23.21875 13.472656 23.652344 13.863281 24.050781 C 14.253906 24.449219 14.679688 24.804688 15.140625 25.121094 C 15.601562 25.433594 16.089844 25.699219 16.605469 25.914062 C 17.121094 26.132812 17.652344 26.292969 18.199219 26.40625 C 18.746094 26.515625 19.296875 26.570312 19.855469 26.570312 C 20.414062 26.570312 20.96875 26.515625 21.515625 26.40625 C 22.0625 26.292969 22.59375 26.132812 23.109375 25.914062 C 23.621094 25.699219 24.109375 25.433594 24.570312 25.121094 C 25.035156 24.804688 25.460938 24.449219 25.851562 24.050781 C 26.242188 23.652344 26.585938 23.21875 26.890625 22.75 C 27.195312 22.28125 27.449219 21.785156 27.65625 21.265625 C 27.859375 20.746094 28.011719 20.214844 28.109375 19.664062 C 28.207031 19.113281 28.25 18.5625 28.238281 18.003906 L 28.238281 15.5625 L 36.621094 15.5625 L 36.621094 18.003906 C 36.621094 18.550781 36.675781 19.097656 36.785156 19.636719 C 36.890625 20.175781 37.050781 20.699219 37.261719 21.210938 C 37.472656 21.71875 37.730469 22.199219 38.035156 22.65625 C 38.339844 23.117188 38.6875 23.539062 39.078125 23.929688 C 39.464844 24.316406 39.890625 24.664062 40.347656 24.96875 C 40.804688 25.277344 41.289062 25.535156 41.796875 25.746094 C 42.304688 25.953125 42.828125 26.113281 43.367188 26.222656 C 43.90625 26.328125 44.453125 26.382812 45.003906 26.382812 C 45.550781 26.382812 46.097656 26.328125 46.636719 26.222656 C 47.175781 26.113281 47.699219 25.953125 48.210938 25.746094 C 48.71875 25.535156 49.199219 25.277344 49.65625 24.96875 C 50.117188 24.664062 50.539062 24.316406 50.925781 23.929688 C 51.316406 23.539062 51.664062 23.117188 51.96875 22.65625 C 52.277344 22.199219 52.535156 21.71875 52.746094 21.210938 C 52.953125 20.699219 53.113281 20.175781 53.222656 19.636719 C 53.328125 19.097656 53.382812 18.550781 53.382812 18.003906 L 53.382812 15.5625 L 61.765625 15.5625 L 61.765625 18.003906 C 61.753906 18.5625 61.796875 19.113281 61.894531 19.664062 C 61.992188 20.214844 62.144531 20.746094 62.351562 21.265625 C 62.554688 21.785156 62.808594 22.28125 63.113281 22.75 C 63.417969 23.21875 63.765625 23.652344 64.15625 24.050781 C 64.546875 24.449219 64.972656 24.804688 65.433594 25.121094 C 65.894531 25.433594 66.382812 25.699219 66.898438 25.914062 C 67.410156 26.132812 67.941406 26.292969 68.488281 26.40625 C 69.035156 26.515625 69.589844 26.570312 70.148438 26.570312 C 70.707031 26.570312 71.257812 26.515625 71.804688 26.40625 C 72.351562 26.292969 72.882812 26.132812 73.398438 25.914062 C 73.914062 25.699219 74.402344 25.433594 74.863281 25.121094 C 75.324219 24.804688 75.75 24.449219 76.140625 24.050781 C 76.53125 23.652344 76.878906 23.21875 77.183594 22.75 C 77.484375 22.28125 77.738281 21.785156 77.945312 21.265625 C 78.148438 20.746094 78.300781 20.214844 78.402344 19.664062 C 78.5 19.113281 78.542969 18.5625 78.53125 18.003906 L 78.53125 15.5625 C 78.988281 15.5625 79.441406 15.609375 79.890625 15.699219 C 80.339844 15.789062 80.777344 15.921875 81.199219 16.09375 C 81.621094 16.269531 82.023438 16.484375 82.40625 16.738281 C 82.785156 16.996094 83.136719 17.285156 83.460938 17.605469 C 83.785156 17.929688 84.074219 18.28125 84.332031 18.664062 C 84.585938 19.042969 84.800781 19.445312 84.976562 19.867188 C 85.152344 20.289062 85.285156 20.726562 85.378906 21.175781 C 85.46875 21.625 85.511719 22.078125 85.515625 22.535156 Z M 85.515625 78.425781 " fill-opacity="1" fill-rule="nonzero"/></g><path fill="#7600bd" d="M 57.199219 38.183594 C 56.167969 37.777344 55.101562 37.527344 53.992188 37.433594 C 52.886719 37.339844 51.792969 37.410156 50.707031 37.640625 C 49.621094 37.875 48.59375 38.257812 47.621094 38.792969 C 46.652344 39.328125 45.777344 39.992188 45.003906 40.789062 C 44.226562 39.992188 43.355469 39.328125 42.382812 38.792969 C 41.410156 38.257812 40.382812 37.875 39.296875 37.640625 C 38.210938 37.410156 37.117188 37.339844 36.011719 37.433594 C 34.90625 37.527344 33.835938 37.777344 32.804688 38.183594 C 31.945312 38.570312 31.136719 39.042969 30.386719 39.609375 C 29.632812 40.175781 28.953125 40.816406 28.347656 41.535156 C 27.738281 42.257812 27.21875 43.035156 26.789062 43.871094 C 26.359375 44.710938 26.027344 45.582031 25.796875 46.496094 C 25.589844 47.296875 25.472656 48.109375 25.453125 48.933594 C 25.429688 49.761719 25.5 50.578125 25.664062 51.386719 C 25.824219 52.199219 26.078125 52.980469 26.417969 53.730469 C 26.757812 54.484375 27.175781 55.191406 27.675781 55.847656 C 30.597656 59.625 43.085938 70.824219 43.617188 71.296875 C 43.808594 71.472656 44.023438 71.605469 44.265625 71.695312 C 44.507812 71.789062 44.757812 71.835938 45.015625 71.835938 C 45.273438 71.835938 45.523438 71.789062 45.761719 71.695312 C 46.003906 71.605469 46.222656 71.472656 46.414062 71.296875 C 46.941406 70.824219 59.425781 59.625 62.351562 55.847656 C 62.851562 55.191406 63.273438 54.484375 63.613281 53.730469 C 63.953125 52.980469 64.203125 52.199219 64.367188 51.386719 C 64.53125 50.578125 64.601562 49.761719 64.578125 48.933594 C 64.554688 48.109375 64.441406 47.296875 64.234375 46.496094 C 64 45.582031 63.667969 44.707031 63.234375 43.867188 C 62.800781 43.03125 62.28125 42.253906 61.671875 41.53125 C 61.0625 40.8125 60.382812 40.171875 59.625 39.605469 C 58.871094 39.039062 58.0625 38.566406 57.199219 38.183594 Z M 59.007812 53.285156 C 54.570312 58.066406 49.902344 62.609375 45.003906 66.914062 C 40.097656 62.609375 35.421875 58.070312 30.984375 53.285156 C 30.363281 52.457031 29.953125 51.535156 29.753906 50.519531 C 29.558594 49.503906 29.589844 48.496094 29.851562 47.496094 C 30.171875 46.269531 30.742188 45.171875 31.566406 44.207031 C 32.386719 43.242188 33.378906 42.503906 34.539062 41.996094 C 35.261719 41.65625 36.019531 41.488281 36.8125 41.492188 C 38.097656 41.640625 39.308594 42.027344 40.445312 42.648438 C 41.582031 43.269531 42.5625 44.078125 43.382812 45.078125 C 43.804688 45.589844 44.347656 45.84375 45.011719 45.839844 C 45.671875 45.84375 46.214844 45.59375 46.636719 45.085938 C 46.8125 44.875 51 39.925781 55.480469 41.996094 C 56.640625 42.503906 57.636719 43.242188 58.457031 44.207031 C 59.28125 45.171875 59.851562 46.269531 60.171875 47.496094 C 60.433594 48.5 60.460938 49.507812 60.261719 50.523438 C 60.058594 51.539062 59.644531 52.460938 59.019531 53.285156 Z M 59.007812 53.285156 " fill-opacity="1" fill-rule="nonzero"/><g clip-path="url(#1d0991f640)"><path fill="#7600bd" d="M 78.523438 11.371094 L 78.523438 8.578125 C 78.511719 8.035156 78.445312 7.5 78.332031 6.96875 C 78.214844 6.4375 78.046875 5.925781 77.832031 5.425781 C 77.617188 4.929688 77.355469 4.457031 77.046875 4.007812 C 76.738281 3.5625 76.390625 3.148438 76.003906 2.769531 C 75.617188 2.390625 75.195312 2.050781 74.742188 1.753906 C 74.285156 1.457031 73.808594 1.203125 73.304688 1 C 72.804688 0.792969 72.285156 0.640625 71.753906 0.535156 C 71.222656 0.429688 70.683594 0.378906 70.140625 0.378906 C 69.597656 0.378906 69.058594 0.429688 68.527344 0.535156 C 67.996094 0.640625 67.476562 0.792969 66.976562 1 C 66.472656 1.203125 65.996094 1.457031 65.539062 1.753906 C 65.085938 2.050781 64.667969 2.390625 64.277344 2.769531 C 63.890625 3.148438 63.542969 3.5625 63.234375 4.007812 C 62.925781 4.457031 62.664062 4.929688 62.449219 5.425781 C 62.234375 5.925781 62.066406 6.4375 61.949219 6.96875 C 61.835938 7.5 61.769531 8.035156 61.757812 8.578125 L 61.757812 11.371094 L 53.375 11.371094 L 53.375 8.578125 C 53.375 8.027344 53.320312 7.484375 53.214844 6.941406 C 53.105469 6.402344 52.949219 5.878906 52.738281 5.371094 C 52.527344 4.863281 52.269531 4.378906 51.960938 3.921875 C 51.65625 3.464844 51.308594 3.042969 50.921875 2.652344 C 50.53125 2.261719 50.109375 1.914062 49.652344 1.609375 C 49.195312 1.304688 48.710938 1.046875 48.203125 0.835938 C 47.695312 0.625 47.167969 0.464844 46.628906 0.359375 C 46.089844 0.25 45.546875 0.199219 44.996094 0.199219 C 44.445312 0.199219 43.898438 0.25 43.359375 0.359375 C 42.820312 0.464844 42.296875 0.625 41.789062 0.835938 C 41.28125 1.046875 40.796875 1.304688 40.339844 1.609375 C 39.882812 1.914062 39.460938 2.261719 39.070312 2.652344 C 38.679688 3.042969 38.332031 3.464844 38.027344 3.921875 C 37.722656 4.378906 37.464844 4.863281 37.253906 5.371094 C 37.042969 5.878906 36.882812 6.402344 36.777344 6.941406 C 36.667969 7.484375 36.617188 8.027344 36.617188 8.578125 L 36.617188 11.371094 L 28.230469 11.371094 L 28.230469 8.578125 C 28.21875 8.035156 28.15625 7.5 28.039062 6.96875 C 27.921875 6.4375 27.757812 5.925781 27.542969 5.425781 C 27.324219 4.929688 27.0625 4.457031 26.757812 4.007812 C 26.449219 3.5625 26.101562 3.148438 25.710938 2.769531 C 25.324219 2.390625 24.902344 2.050781 24.449219 1.753906 C 23.996094 1.457031 23.519531 1.203125 23.015625 1 C 22.511719 0.792969 21.996094 0.640625 21.464844 0.535156 C 20.929688 0.429688 20.394531 0.378906 19.851562 0.378906 C 19.308594 0.378906 18.769531 0.429688 18.238281 0.535156 C 17.703125 0.640625 17.1875 0.792969 16.683594 1 C 16.183594 1.203125 15.703125 1.457031 15.25 1.753906 C 14.796875 2.050781 14.375 2.390625 13.988281 2.769531 C 13.597656 3.148438 13.25 3.5625 12.945312 4.007812 C 12.636719 4.457031 12.375 4.929688 12.160156 5.425781 C 11.941406 5.925781 11.777344 6.4375 11.660156 6.96875 C 11.542969 7.5 11.480469 8.035156 11.46875 8.578125 L 11.46875 11.371094 C 10.734375 11.371094 10.007812 11.445312 9.289062 11.585938 C 8.570312 11.730469 7.875 11.941406 7.195312 12.222656 C 6.519531 12.503906 5.875 12.847656 5.265625 13.257812 C 4.65625 13.664062 4.09375 14.125 3.574219 14.644531 C 3.054688 15.164062 2.59375 15.726562 2.183594 16.335938 C 1.777344 16.945312 1.433594 17.585938 1.152344 18.265625 C 0.871094 18.941406 0.65625 19.640625 0.511719 20.359375 C 0.371094 21.078125 0.296875 21.804688 0.296875 22.535156 L 0.296875 78.425781 C 0.296875 79.160156 0.367188 79.886719 0.511719 80.605469 C 0.65625 81.324219 0.867188 82.023438 1.148438 82.699219 C 1.429688 83.375 1.773438 84.019531 2.183594 84.628906 C 2.589844 85.238281 3.050781 85.804688 3.570312 86.324219 C 4.089844 86.839844 4.652344 87.304688 5.261719 87.710938 C 5.875 88.121094 6.515625 88.464844 7.195312 88.746094 C 7.871094 89.027344 8.570312 89.238281 9.289062 89.382812 C 10.007812 89.527344 10.734375 89.597656 11.46875 89.597656 L 78.523438 89.597656 C 79.257812 89.597656 79.980469 89.527344 80.703125 89.382812 C 81.421875 89.238281 82.117188 89.027344 82.796875 88.746094 C 83.472656 88.464844 84.117188 88.121094 84.726562 87.710938 C 85.335938 87.304688 85.902344 86.839844 86.417969 86.324219 C 86.9375 85.804688 87.402344 85.238281 87.808594 84.628906 C 88.214844 84.019531 88.5625 83.375 88.84375 82.699219 C 89.121094 82.023438 89.335938 81.324219 89.480469 80.605469 C 89.621094 79.886719 89.695312 79.160156 89.695312 78.425781 L 89.695312 22.535156 C 89.695312 21.804688 89.621094 21.078125 89.476562 20.359375 C 89.332031 19.640625 89.121094 18.941406 88.839844 18.265625 C 88.558594 17.585938 88.214844 16.945312 87.804688 16.335938 C 87.398438 15.726562 86.933594 15.164062 86.417969 14.644531 C 85.898438 14.125 85.335938 13.664062 84.722656 13.257812 C 84.113281 12.847656 83.472656 12.503906 82.792969 12.222656 C 82.117188 11.941406 81.417969 11.730469 80.699219 11.585938 C 79.980469 11.445312 79.253906 11.371094 78.523438 11.371094 Z M 65.949219 8.578125 C 65.941406 8.296875 65.960938 8.019531 66.007812 7.742188 C 66.054688 7.464844 66.128906 7.195312 66.230469 6.933594 C 66.332031 6.671875 66.460938 6.421875 66.609375 6.1875 C 66.761719 5.949219 66.933594 5.730469 67.128906 5.53125 C 67.328125 5.328125 67.539062 5.148438 67.769531 4.988281 C 68.003906 4.832031 68.246094 4.695312 68.507812 4.585938 C 68.765625 4.476562 69.03125 4.394531 69.308594 4.339844 C 69.582031 4.285156 69.859375 4.253906 70.140625 4.253906 C 70.421875 4.253906 70.699219 4.285156 70.972656 4.339844 C 71.25 4.394531 71.515625 4.476562 71.773438 4.585938 C 72.035156 4.695312 72.277344 4.832031 72.511719 4.988281 C 72.742188 5.148438 72.957031 5.328125 73.152344 5.53125 C 73.347656 5.730469 73.519531 5.949219 73.671875 6.1875 C 73.820312 6.421875 73.949219 6.671875 74.050781 6.933594 C 74.152344 7.195312 74.226562 7.464844 74.273438 7.742188 C 74.320312 8.019531 74.339844 8.296875 74.332031 8.578125 L 74.332031 18.007812 C 74.339844 18.289062 74.320312 18.566406 74.273438 18.84375 C 74.226562 19.121094 74.152344 19.386719 74.050781 19.648438 C 73.949219 19.914062 73.820312 20.160156 73.671875 20.398438 C 73.519531 20.632812 73.347656 20.851562 73.152344 21.054688 C 72.957031 21.257812 72.742188 21.4375 72.511719 21.59375 C 72.277344 21.753906 72.035156 21.886719 71.773438 21.996094 C 71.515625 22.105469 71.25 22.1875 70.972656 22.246094 C 70.699219 22.300781 70.421875 22.328125 70.140625 22.328125 C 69.859375 22.328125 69.582031 22.300781 69.308594 22.246094 C 69.03125 22.1875 68.765625 22.105469 68.507812 21.996094 C 68.246094 21.886719 68.003906 21.753906 67.769531 21.59375 C 67.539062 21.4375 67.328125 21.257812 67.128906 21.054688 C 66.933594 20.851562 66.761719 20.632812 66.609375 20.398438 C 66.460938 20.160156 66.332031 19.914062 66.230469 19.648438 C 66.128906 19.386719 66.054688 19.121094 66.007812 18.84375 C 65.960938 18.566406 65.941406 18.289062 65.949219 18.007812 Z M 40.804688 8.578125 C 40.804688 8.300781 40.828125 8.03125 40.882812 7.757812 C 40.9375 7.488281 41.015625 7.226562 41.121094 6.972656 C 41.226562 6.71875 41.355469 6.476562 41.507812 6.246094 C 41.660156 6.019531 41.835938 5.804688 42.03125 5.609375 C 42.222656 5.417969 42.4375 5.242188 42.664062 5.089844 C 42.894531 4.9375 43.136719 4.808594 43.390625 4.703125 C 43.644531 4.597656 43.90625 4.515625 44.175781 4.460938 C 44.445312 4.410156 44.71875 4.382812 44.996094 4.382812 C 45.269531 4.382812 45.542969 4.410156 45.8125 4.460938 C 46.082031 4.515625 46.347656 4.597656 46.601562 4.703125 C 46.855469 4.808594 47.097656 4.9375 47.324219 5.089844 C 47.554688 5.242188 47.765625 5.417969 47.960938 5.609375 C 48.15625 5.804688 48.328125 6.019531 48.480469 6.246094 C 48.636719 6.476562 48.765625 6.71875 48.871094 6.972656 C 48.972656 7.226562 49.054688 7.488281 49.105469 7.757812 C 49.160156 8.03125 49.1875 8.300781 49.1875 8.578125 L 49.1875 18.007812 C 49.1875 18.28125 49.160156 18.554688 49.105469 18.824219 C 49.054688 19.09375 48.972656 19.359375 48.871094 19.613281 C 48.765625 19.867188 48.636719 20.109375 48.480469 20.335938 C 48.328125 20.566406 48.15625 20.777344 47.960938 20.972656 C 47.765625 21.167969 47.554688 21.34375 47.324219 21.496094 C 47.097656 21.648438 46.855469 21.777344 46.601562 21.882812 C 46.347656 21.988281 46.082031 22.066406 45.8125 22.121094 C 45.542969 22.175781 45.269531 22.203125 44.996094 22.203125 C 44.71875 22.203125 44.445312 22.175781 44.175781 22.121094 C 43.90625 22.066406 43.644531 21.988281 43.390625 21.882812 C 43.136719 21.777344 42.894531 21.648438 42.664062 21.496094 C 42.4375 21.34375 42.222656 21.167969 42.03125 20.972656 C 41.835938 20.777344 41.660156 20.566406 41.507812 20.335938 C 41.355469 20.109375 41.226562 19.867188 41.121094 19.613281 C 41.015625 19.359375 40.9375 19.09375 40.882812 18.824219 C 40.828125 18.554688 40.804688 18.28125 40.804688 18.007812 Z M 15.660156 8.578125 C 15.652344 8.296875 15.671875 8.019531 15.71875 7.742188 C 15.765625 7.464844 15.839844 7.195312 15.941406 6.933594 C 16.042969 6.671875 16.167969 6.421875 16.320312 6.1875 C 16.472656 5.949219 16.644531 5.730469 16.839844 5.53125 C 17.035156 5.328125 17.25 5.148438 17.480469 4.988281 C 17.710938 4.832031 17.957031 4.695312 18.214844 4.585938 C 18.472656 4.476562 18.742188 4.394531 19.015625 4.339844 C 19.292969 4.285156 19.570312 4.253906 19.851562 4.253906 C 20.128906 4.253906 20.410156 4.285156 20.683594 4.339844 C 20.957031 4.394531 21.226562 4.476562 21.484375 4.585938 C 21.742188 4.695312 21.988281 4.832031 22.21875 4.988281 C 22.449219 5.148438 22.664062 5.328125 22.859375 5.53125 C 23.054688 5.730469 23.230469 5.949219 23.378906 6.1875 C 23.53125 6.421875 23.65625 6.671875 23.757812 6.933594 C 23.859375 7.195312 23.933594 7.464844 23.980469 7.742188 C 24.03125 8.019531 24.046875 8.296875 24.039062 8.578125 L 24.039062 18.007812 C 24.046875 18.289062 24.03125 18.566406 23.980469 18.84375 C 23.933594 19.121094 23.859375 19.386719 23.757812 19.648438 C 23.65625 19.914062 23.53125 20.160156 23.378906 20.398438 C 23.230469 20.632812 23.054688 20.851562 22.859375 21.054688 C 22.664062 21.257812 22.449219 21.4375 22.21875 21.59375 C 21.988281 21.753906 21.742188 21.886719 21.484375 21.996094 C 21.226562 22.105469 20.957031 22.1875 20.683594 22.246094 C 20.410156 22.300781 20.128906 22.328125 19.851562 22.328125 C 19.570312 22.328125 19.292969 22.300781 19.015625 22.246094 C 18.742188 22.1875 18.472656 22.105469 18.214844 21.996094 C 17.957031 21.886719 17.710938 21.753906 17.480469 21.59375 C 17.25 21.4375 17.035156 21.257812 16.839844 21.054688 C 16.644531 20.851562 16.472656 20.632812 16.320312 20.398438 C 16.167969 20.160156 16.042969 19.914062 15.941406 19.648438 C 15.839844 19.386719 15.765625 19.121094 15.71875 18.84375 C 15.671875 18.566406 15.652344 18.289062 15.660156 18.007812 Z M 85.507812 78.425781 C 85.507812 78.882812 85.460938 79.339844 85.371094 79.789062 C 85.28125 80.238281 85.148438 80.671875 84.972656 81.097656 C 84.796875 81.519531 84.582031 81.921875 84.328125 82.304688 C 84.074219 82.683594 83.785156 83.039062 83.460938 83.363281 C 83.136719 83.6875 82.78125 83.976562 82.402344 84.230469 C 82.019531 84.484375 81.617188 84.699219 81.195312 84.875 C 80.769531 85.050781 80.335938 85.183594 79.882812 85.273438 C 79.433594 85.363281 78.980469 85.410156 78.523438 85.410156 L 11.46875 85.410156 C 11.007812 85.410156 10.554688 85.363281 10.105469 85.273438 C 9.65625 85.183594 9.21875 85.050781 8.796875 84.875 C 8.371094 84.699219 7.96875 84.484375 7.589844 84.230469 C 7.207031 83.976562 6.855469 83.6875 6.53125 83.363281 C 6.207031 83.039062 5.917969 82.683594 5.664062 82.304688 C 5.40625 81.921875 5.191406 81.519531 5.015625 81.097656 C 4.839844 80.671875 4.707031 80.238281 4.617188 79.789062 C 4.527344 79.339844 4.484375 78.882812 4.484375 78.425781 L 4.484375 22.535156 C 4.484375 22.078125 4.53125 21.625 4.621094 21.175781 C 4.710938 20.726562 4.84375 20.289062 5.019531 19.867188 C 5.195312 19.445312 5.410156 19.042969 5.667969 18.664062 C 5.921875 18.28125 6.210938 17.929688 6.535156 17.605469 C 6.859375 17.285156 7.210938 16.996094 7.59375 16.738281 C 7.972656 16.484375 8.375 16.269531 8.800781 16.09375 C 9.222656 15.921875 9.660156 15.789062 10.109375 15.699219 C 10.554688 15.609375 11.011719 15.5625 11.46875 15.5625 L 11.46875 18.003906 C 11.457031 18.5625 11.5 19.113281 11.597656 19.664062 C 11.695312 20.214844 11.847656 20.746094 12.050781 21.265625 C 12.257812 21.785156 12.511719 22.28125 12.816406 22.75 C 13.121094 23.21875 13.464844 23.652344 13.855469 24.050781 C 14.246094 24.449219 14.671875 24.804688 15.132812 25.121094 C 15.597656 25.433594 16.085938 25.699219 16.597656 25.914062 C 17.113281 26.132812 17.644531 26.292969 18.191406 26.40625 C 18.738281 26.515625 19.292969 26.570312 19.851562 26.570312 C 20.40625 26.570312 20.960938 26.515625 21.507812 26.40625 C 22.054688 26.292969 22.585938 26.132812 23.101562 25.914062 C 23.617188 25.699219 24.105469 25.433594 24.566406 25.121094 C 25.027344 24.804688 25.453125 24.449219 25.84375 24.050781 C 26.234375 23.652344 26.582031 23.21875 26.882812 22.75 C 27.1875 22.28125 27.441406 21.785156 27.648438 21.265625 C 27.851562 20.746094 28.003906 20.214844 28.101562 19.664062 C 28.199219 19.113281 28.242188 18.5625 28.230469 18.003906 L 28.230469 15.5625 L 36.617188 15.5625 L 36.617188 18.003906 C 36.617188 18.550781 36.667969 19.097656 36.777344 19.636719 C 36.882812 20.175781 37.042969 20.699219 37.253906 21.210938 C 37.464844 21.71875 37.722656 22.199219 38.027344 22.65625 C 38.332031 23.117188 38.679688 23.539062 39.070312 23.929688 C 39.460938 24.316406 39.882812 24.664062 40.339844 24.96875 C 40.796875 25.277344 41.28125 25.535156 41.789062 25.746094 C 42.296875 25.953125 42.820312 26.113281 43.359375 26.222656 C 43.898438 26.328125 44.445312 26.382812 44.996094 26.382812 C 45.546875 26.382812 46.089844 26.328125 46.628906 26.222656 C 47.167969 26.113281 47.695312 25.953125 48.203125 25.746094 C 48.710938 25.535156 49.195312 25.277344 49.652344 24.96875 C 50.109375 24.664062 50.53125 24.316406 50.921875 23.929688 C 51.308594 23.539062 51.65625 23.117188 51.960938 22.65625 C 52.269531 22.199219 52.527344 21.71875 52.738281 21.210938 C 52.949219 20.699219 53.105469 20.175781 53.214844 19.636719 C 53.320312 19.097656 53.375 18.550781 53.375 18.003906 L 53.375 15.5625 L 61.757812 15.5625 L 61.757812 18.003906 C 61.746094 18.5625 61.789062 19.113281 61.886719 19.664062 C 61.988281 20.214844 62.136719 20.746094 62.34375 21.265625 C 62.546875 21.785156 62.800781 22.28125 63.105469 22.75 C 63.410156 23.21875 63.757812 23.652344 64.148438 24.050781 C 64.539062 24.449219 64.964844 24.804688 65.425781 25.121094 C 65.886719 25.433594 66.375 25.699219 66.890625 25.914062 C 67.40625 26.132812 67.933594 26.292969 68.484375 26.40625 C 69.03125 26.515625 69.582031 26.570312 70.140625 26.570312 C 70.699219 26.570312 71.25 26.515625 71.800781 26.40625 C 72.347656 26.292969 72.878906 26.132812 73.390625 25.914062 C 73.90625 25.699219 74.394531 25.433594 74.855469 25.121094 C 75.316406 24.804688 75.742188 24.449219 76.132812 24.050781 C 76.523438 23.652344 76.871094 23.21875 77.175781 22.75 C 77.480469 22.28125 77.734375 21.785156 77.9375 21.265625 C 78.144531 20.746094 78.296875 20.214844 78.394531 19.664062 C 78.492188 19.113281 78.535156 18.5625 78.523438 18.003906 L 78.523438 15.5625 C 78.980469 15.5625 79.433594 15.609375 79.882812 15.699219 C 80.332031 15.789062 80.769531 15.921875 81.191406 16.09375 C 81.613281 16.269531 82.015625 16.484375 82.398438 16.738281 C 82.777344 16.996094 83.132812 17.285156 83.457031 17.605469 C 83.777344 17.929688 84.070312 18.28125 84.324219 18.664062 C 84.578125 19.042969 84.792969 19.445312 84.96875 19.867188 C 85.144531 20.289062 85.28125 20.726562 85.371094 21.175781 C 85.460938 21.625 85.507812 22.078125 85.507812 22.535156 Z M 85.507812 78.425781 " fill-opacity="1" fill-rule="nonzero"/></g><path fill="#7600bd" d="M 57.191406 38.183594 C 56.160156 37.777344 55.09375 37.527344 53.988281 37.433594 C 52.882812 37.339844 51.785156 37.410156 50.699219 37.640625 C 49.617188 37.875 48.585938 38.257812 47.617188 38.792969 C 46.644531 39.328125 45.769531 39.992188 44.996094 40.789062 C 44.21875 39.992188 43.347656 39.328125 42.375 38.792969 C 41.402344 38.257812 40.375 37.875 39.289062 37.640625 C 38.203125 37.410156 37.109375 37.339844 36.003906 37.433594 C 34.898438 37.527344 33.828125 37.777344 32.796875 38.183594 C 31.9375 38.570312 31.132812 39.042969 30.378906 39.609375 C 29.625 40.175781 28.945312 40.816406 28.339844 41.535156 C 27.730469 42.257812 27.214844 43.035156 26.78125 43.871094 C 26.351562 44.710938 26.019531 45.582031 25.789062 46.496094 C 25.582031 47.296875 25.46875 48.109375 25.445312 48.933594 C 25.421875 49.761719 25.492188 50.578125 25.65625 51.386719 C 25.816406 52.199219 26.070312 52.980469 26.410156 53.730469 C 26.75 54.484375 27.171875 55.191406 27.671875 55.847656 C 30.589844 59.625 43.082031 70.824219 43.609375 71.296875 C 43.800781 71.472656 44.015625 71.605469 44.257812 71.695312 C 44.5 71.789062 44.75 71.835938 45.007812 71.835938 C 45.265625 71.835938 45.515625 71.789062 45.757812 71.695312 C 45.996094 71.605469 46.214844 71.472656 46.40625 71.296875 C 46.933594 70.824219 59.417969 59.625 62.34375 55.847656 C 62.84375 55.191406 63.265625 54.484375 63.605469 53.730469 C 63.945312 52.980469 64.195312 52.199219 64.359375 51.386719 C 64.523438 50.578125 64.59375 49.761719 64.570312 48.933594 C 64.546875 48.109375 64.433594 47.296875 64.226562 46.496094 C 63.992188 45.582031 63.660156 44.707031 63.226562 43.867188 C 62.796875 43.03125 62.273438 42.253906 61.664062 41.53125 C 61.054688 40.8125 60.375 40.171875 59.617188 39.605469 C 58.863281 39.039062 58.054688 38.566406 57.191406 38.183594 Z M 59.003906 53.285156 C 54.566406 58.066406 49.894531 62.609375 44.996094 66.914062 C 40.089844 62.609375 35.417969 58.070312 30.976562 53.285156 C 30.355469 52.457031 29.945312 51.535156 29.75 50.519531 C 29.550781 49.503906 29.582031 48.496094 29.847656 47.496094 C 30.164062 46.269531 30.734375 45.171875 31.558594 44.207031 C 32.378906 43.242188 33.371094 42.503906 34.535156 41.996094 C 35.253906 41.65625 36.011719 41.488281 36.808594 41.492188 C 38.09375 41.640625 39.304688 42.027344 40.4375 42.648438 C 41.574219 43.269531 42.554688 44.078125 43.378906 45.078125 C 43.796875 45.589844 44.339844 45.84375 45.003906 45.839844 C 45.664062 45.84375 46.207031 45.59375 46.628906 45.085938 C 46.804688 44.875 50.992188 39.925781 55.472656 41.996094 C 56.636719 42.503906 57.628906 43.242188 58.453125 44.207031 C 59.273438 45.171875 59.847656 46.269531 60.164062 47.496094 C 60.425781 48.5 60.453125 49.507812 60.253906 50.523438 C 60.050781 51.539062 59.636719 52.460938 59.015625 53.285156 Z M 59.003906 53.285156 " fill-opacity="1" fill-rule="nonzero"/></svg>