<svg xmlns="http://www.w3.org/2000/svg" xmlns:xlink="http://www.w3.org/1999/xlink" width="145" zoomAndPan="magnify" viewBox="0 0 108.75 109.499999" height="146" preserveAspectRatio="xMidYMid meet" version="1.0"><defs><g/><clipPath id="344ec7d078"><path d="M 7.648438 8.109375 L 100.882812 8.109375 L 100.882812 101.574219 L 7.648438 101.574219 Z M 7.648438 8.109375 " clip-rule="nonzero"/></clipPath><clipPath id="b58132a336"><path d="M 54.265625 8.109375 C 28.519531 8.109375 7.648438 29.03125 7.648438 54.839844 C 7.648438 80.652344 28.519531 101.574219 54.265625 101.574219 C 80.011719 101.574219 100.882812 80.652344 100.882812 54.839844 C 100.882812 29.03125 80.011719 8.109375 54.265625 8.109375 Z M 54.265625 8.109375 " clip-rule="nonzero"/></clipPath><clipPath id="6a20b75556"><path d="M 15.96875 16.238281 L 92.445312 16.238281 L 92.445312 92.710938 L 15.96875 92.710938 Z M 15.96875 16.238281 " clip-rule="nonzero"/></clipPath><clipPath id="b3d5183f5f"><path d="M 54.238281 16.238281 C 33.101562 16.238281 15.96875 33.371094 15.96875 54.507812 C 15.96875 75.640625 33.101562 92.773438 54.238281 92.773438 C 75.375 92.773438 92.507812 75.640625 92.507812 54.507812 C 92.507812 33.371094 75.375 16.238281 54.238281 16.238281 Z M 54.238281 16.238281 " clip-rule="nonzero"/></clipPath><clipPath id="e7964eea88"><path d="M 33.570312 33.835938 L 74.90625 33.835938 L 74.90625 75.175781 L 33.570312 75.175781 Z M 33.570312 33.835938 " clip-rule="nonzero"/></clipPath><clipPath id="52e9f35733"><path d="M 54.238281 33.835938 C 42.824219 33.835938 33.570312 43.089844 33.570312 54.503906 C 33.570312 65.921875 42.824219 75.175781 54.238281 75.175781 C 65.652344 75.175781 74.90625 65.921875 74.90625 54.503906 C 74.90625 43.089844 65.652344 33.835938 54.238281 33.835938 Z M 54.238281 33.835938 " clip-rule="nonzero"/></clipPath><clipPath id="f654c5a647"><path d="M 46.410156 53.296875 L 62.945312 53.296875 L 62.945312 65.816406 L 46.410156 65.816406 Z M 46.410156 53.296875 " clip-rule="nonzero"/></clipPath><clipPath id="cdf84f8dbd"><path d="M 40.144531 50 L 47 50 L 47 58 L 40.144531 58 Z M 40.144531 50 " clip-rule="nonzero"/></clipPath><clipPath id="206e22c475"><path d="M 55 43.535156 L 61 43.535156 L 61 52 L 55 52 Z M 55 43.535156 " clip-rule="nonzero"/></clipPath></defs><g clip-path="url(#344ec7d078)"><g clip-path="url(#b58132a336)"><path fill="#7600bd" d="M 7.648438 8.109375 L 100.882812 8.109375 L 100.882812 101.574219 L 7.648438 101.574219 Z M 7.648438 8.109375 " fill-opacity="1" fill-rule="nonzero"/></g></g><g clip-path="url(#6a20b75556)"><g clip-path="url(#b3d5183f5f)"><path stroke-linecap="butt" transform="matrix(0.406774, 0, 0, 0.406774, 15.970028, 16.237501)" fill="none" stroke-linejoin="miter" d="M 94.077507 0.00191728 C 42.115642 0.00191728 -0.00314277 42.120702 -0.00314277 94.082567 C -0.00314277 146.03483 42.115642 188.153614 94.077507 188.153614 C 146.039372 188.153614 188.158157 146.03483 188.158157 94.082567 C 188.158157 42.120702 146.039372 0.00191728 94.077507 0.00191728 Z M 94.077507 0.00191728 " stroke="#ffffff" stroke-width="11.012379" stroke-opacity="1" stroke-miterlimit="4"/></g></g><g fill="#ffffff" fill-opacity="1"><g transform="translate(29.073313, 61.796001)"><g><path d="M -6.023438 -2.136719 C -5.734375 -0.445312 -4.464844 0.492188 -2.753906 0.199219 C -1.042969 -0.09375 -0.160156 -1.398438 -0.449219 -3.085938 C -0.578125 -3.855469 -0.957031 -4.425781 -1.339844 -4.761719 C -1.488281 -4.878906 -1.65625 -4.945312 -1.84375 -4.914062 C -2.199219 -4.851562 -2.378906 -4.597656 -2.3125 -4.210938 C -2.292969 -4.085938 -2.261719 -4.011719 -2.1875 -3.929688 C -1.878906 -3.632812 -1.683594 -3.324219 -1.609375 -2.890625 C -1.453125 -1.976562 -1.957031 -1.292969 -2.980469 -1.117188 C -4.003906 -0.941406 -4.707031 -1.417969 -4.863281 -2.332031 C -4.933594 -2.765625 -4.851562 -3.125 -4.664062 -3.507812 C -4.617188 -3.609375 -4.613281 -3.691406 -4.636719 -3.8125 C -4.703125 -4.203125 -4.957031 -4.382812 -5.3125 -4.320312 C -5.5 -4.289062 -5.636719 -4.167969 -5.738281 -4.007812 C -5.988281 -3.566406 -6.152344 -2.902344 -6.023438 -2.136719 Z M -6.023438 -2.136719 "/></g></g></g><g fill="#ffffff" fill-opacity="1"><g transform="translate(28.17277, 55.903786)"><g><path d="M -5.527344 -1.316406 C -5.546875 -0.867188 -5.273438 -0.644531 -4.847656 -0.628906 L -0.6875 -0.453125 C -0.265625 -0.4375 0.0273438 -0.636719 0.046875 -1.082031 L 0.160156 -3.804688 C 0.171875 -4.136719 -0.0820312 -4.414062 -0.414062 -4.429688 C -0.742188 -4.441406 -1.019531 -4.1875 -1.035156 -3.855469 L -1.121094 -1.808594 L -4.792969 -1.960938 C -5.214844 -1.980469 -5.507812 -1.761719 -5.527344 -1.316406 Z M -5.527344 -1.316406 "/></g></g></g><g fill="#ffffff" fill-opacity="1"><g transform="translate(28.380817, 50.869453)"><g><path d="M -5.121094 -2.460938 C -5.234375 -2.027344 -5.015625 -1.75 -4.605469 -1.640625 L -1.921875 -0.941406 C -0.652344 -0.609375 0.417969 -1.289062 0.789062 -2.699219 C 1.15625 -4.113281 0.554688 -5.222656 -0.714844 -5.554688 L -3.398438 -6.253906 C -3.808594 -6.363281 -4.136719 -6.222656 -4.25 -5.789062 C -4.363281 -5.355469 -4.148438 -5.070312 -3.734375 -4.964844 L -1.191406 -4.296875 C -0.460938 -4.105469 -0.175781 -3.667969 -0.351562 -3 C -0.527344 -2.332031 -1.023438 -2.085938 -1.722656 -2.269531 L -4.265625 -2.933594 C -4.675781 -3.042969 -5.007812 -2.894531 -5.121094 -2.460938 Z M -5.121094 -2.460938 "/></g></g></g><g fill="#ffffff" fill-opacity="1"><g transform="translate(29.997839, 44.981918)"><g><path d="M -0.53125 -5.007812 C -0.558594 -5.441406 -0.8125 -5.855469 -1.285156 -6.105469 C -2.15625 -6.5625 -2.894531 -6.320312 -3.414062 -5.324219 L -4.050781 -4.113281 L -4.195312 -3.84375 L -4.359375 -3.523438 C -4.570312 -3.125 -4.429688 -2.804688 -4.050781 -2.605469 L -0.421875 -0.699219 C -0.046875 -0.503906 0.300781 -0.570312 0.507812 -0.96875 L 0.675781 -1.285156 L 0.816406 -1.558594 L 1.53125 -2.914062 C 1.972656 -3.757812 1.929688 -4.640625 0.992188 -5.132812 C 0.40625 -5.4375 -0.125 -5.371094 -0.53125 -5.007812 Z M -0.136719 -2.058594 L -1.136719 -2.582031 L -0.546875 -3.710938 C -0.371094 -4.042969 -0.0898438 -4.191406 0.246094 -4.015625 C 0.585938 -3.835938 0.625 -3.503906 0.457031 -3.183594 Z M -2.097656 -3.085938 L -3.097656 -3.613281 L -2.574219 -4.613281 C -2.402344 -4.941406 -2.078125 -5.011719 -1.792969 -4.863281 C -1.507812 -4.714844 -1.398438 -4.417969 -1.570312 -4.089844 Z M -2.097656 -3.085938 "/></g></g></g><g fill="#ffffff" fill-opacity="1"><g transform="translate(32.896627, 39.854015)"><g/></g></g><g fill="#ffffff" fill-opacity="1"><g transform="translate(34.490905, 37.637317)"><g><path d="M -2.675781 -5.042969 L -3.003906 -4.730469 C -3.332031 -4.421875 -3.289062 -4.070312 -2.996094 -3.761719 L -0.125 -0.746094 C 0.167969 -0.441406 0.515625 -0.382812 0.839844 -0.691406 C 1.164062 -1 1.132812 -1.359375 0.839844 -1.667969 L 0.167969 -2.375 L 1.074219 -3.234375 C 1.882812 -4.003906 1.90625 -4.960938 1.007812 -5.902344 C 0.117188 -6.835938 -0.804688 -6.828125 -1.679688 -5.992188 L -2.515625 -5.195312 Z M -0.652344 -3.238281 L -1.691406 -4.332031 L -1 -4.992188 C -0.65625 -5.316406 -0.285156 -5.324219 0.0625 -4.960938 C 0.402344 -4.601562 0.382812 -4.222656 0.0390625 -3.898438 Z M -0.652344 -3.238281 "/></g></g></g><g fill="#ffffff" fill-opacity="1"><g transform="translate(38.554484, 33.822354)"><g><path d="M -0.542969 -6.179688 C -0.546875 -6.175781 -0.5625 -6.167969 -0.570312 -6.164062 C -0.789062 -6.03125 -0.90625 -5.777344 -0.871094 -5.523438 L -0.292969 -0.851562 C -0.285156 -0.746094 -0.25 -0.648438 -0.203125 -0.566406 C -0.015625 -0.257812 0.402344 -0.152344 0.714844 -0.335938 C 0.957031 -0.484375 1.09375 -0.710938 1.035156 -0.988281 L 0.855469 -1.933594 L 2.523438 -2.9375 L 3.273438 -2.332031 C 3.492188 -2.152344 3.757812 -2.164062 4 -2.3125 C 4.308594 -2.496094 4.40625 -2.914062 4.222656 -3.222656 C 4.171875 -3.304688 4.109375 -3.382812 4.019531 -3.441406 L 0.160156 -6.144531 C -0.0546875 -6.289062 -0.316406 -6.296875 -0.542969 -6.179688 Z M 1.671875 -3.640625 L 0.632812 -3.019531 L 0.292969 -4.757812 Z M 1.671875 -3.640625 "/></g></g></g><g fill="#ffffff" fill-opacity="1"><g transform="translate(43.537091, 30.765337)"><g><path d="M -0.828125 -5.566406 C -1.175781 -5.464844 -1.363281 -5.09375 -1.261719 -4.746094 C -1.238281 -4.671875 -1.21875 -4.601562 -1.179688 -4.550781 L 1.378906 -0.800781 C 1.539062 -0.585938 1.847656 -0.457031 2.101562 -0.53125 C 2.375 -0.609375 2.609375 -0.851562 2.601562 -1.160156 L 2.53125 -4.109375 L 4.070312 -1.585938 C 4.230469 -1.324219 4.5625 -1.25 4.816406 -1.324219 C 5.050781 -1.390625 5.285156 -1.632812 5.292969 -1.945312 L 5.433594 -6.511719 C 5.429688 -6.574219 5.421875 -6.628906 5.40625 -6.691406 C 5.304688 -7.039062 4.925781 -7.246094 4.578125 -7.144531 C 4.230469 -7.042969 4.09375 -6.839844 4.101562 -6.53125 L 4.15625 -3.566406 L 2.625 -6.09375 C 2.46875 -6.355469 2.179688 -6.445312 1.894531 -6.363281 C 1.605469 -6.277344 1.386719 -6.042969 1.402344 -5.734375 L 1.464844 -2.785156 L -0.0742188 -5.304688 C -0.234375 -5.570312 -0.503906 -5.664062 -0.828125 -5.566406 Z M -0.828125 -5.566406 "/></g></g></g><g fill="#ffffff" fill-opacity="1"><g transform="translate(50.895618, 28.827134)"><g><path d="M 2.214844 -5.660156 C 0.921875 -5.613281 0.308594 -4.917969 0.34375 -3.941406 C 0.378906 -3.015625 0.839844 -2.578125 1.652344 -2.386719 L 2.59375 -2.175781 C 3.046875 -2.074219 3.171875 -1.875 3.179688 -1.65625 C 3.1875 -1.359375 2.984375 -1.113281 2.460938 -1.09375 C 1.902344 -1.074219 1.492188 -1.15625 1.058594 -1.414062 C 0.960938 -1.472656 0.859375 -1.484375 0.773438 -1.480469 C 0.449219 -1.46875 0.238281 -1.242188 0.25 -0.929688 C 0.253906 -0.804688 0.304688 -0.671875 0.417969 -0.566406 C 0.898438 -0.152344 1.613281 0.0195312 2.523438 -0.0117188 C 3.914062 -0.0625 4.546875 -0.816406 4.511719 -1.765625 C 4.476562 -2.664062 4.078125 -3.089844 3.207031 -3.292969 L 2.261719 -3.5 C 1.859375 -3.589844 1.6875 -3.746094 1.675781 -4.046875 C 1.664062 -4.359375 1.917969 -4.566406 2.371094 -4.582031 C 2.742188 -4.597656 3.050781 -4.496094 3.375 -4.265625 C 3.472656 -4.199219 3.582031 -4.179688 3.683594 -4.183594 C 4.039062 -4.195312 4.210938 -4.421875 4.199219 -4.734375 C 4.195312 -4.859375 4.152344 -4.976562 4.058594 -5.074219 C 3.695312 -5.441406 2.9375 -5.6875 2.214844 -5.660156 Z M 2.214844 -5.660156 "/></g></g></g><g fill="#ffffff" fill-opacity="1"><g transform="translate(56.365297, 28.78733)"><g/></g></g><g fill="#ffffff" fill-opacity="1"><g transform="translate(59.17091, 29.169633)"><g/></g></g><g fill="#ffffff" fill-opacity="1"><g transform="translate(61.918412, 29.854359)"><g/></g></g><g fill="#ffffff" fill-opacity="1"><g transform="translate(64.575305, 30.833413)"><g/></g></g><g fill="#ffffff" fill-opacity="1"><g transform="translate(67.110156, 32.095211)"><g/></g></g><g fill="#ffffff" fill-opacity="1"><g transform="translate(69.49526, 33.628968)"><g><path d="M 0.609375 -0.320312 C 0.359375 0 0.414062 0.425781 0.738281 0.675781 C 1.058594 0.925781 1.472656 0.871094 1.722656 0.550781 C 1.976562 0.226562 1.929688 -0.1875 1.609375 -0.4375 C 1.285156 -0.691406 0.859375 -0.644531 0.609375 -0.320312 Z M 0.609375 -0.320312 "/></g></g></g><g fill="#ffffff" fill-opacity="1"><g transform="translate(71.621963, 35.340746)"><g><path d="M 0.640625 -0.253906 C 0.355469 0.0390625 0.367188 0.464844 0.664062 0.75 C 0.957031 1.035156 1.375 1.019531 1.65625 0.726562 C 1.941406 0.433594 1.9375 0.015625 1.644531 -0.265625 C 1.351562 -0.550781 0.925781 -0.550781 0.640625 -0.253906 Z M 0.640625 -0.253906 "/></g></g></g><g fill="#ffffff" fill-opacity="1"><g transform="translate(73.557706, 37.265826)"><g><path d="M 0.664062 -0.1875 C 0.351562 0.0742188 0.316406 0.503906 0.582031 0.816406 C 0.84375 1.128906 1.257812 1.160156 1.570312 0.898438 C 1.882812 0.632812 1.925781 0.21875 1.664062 -0.09375 C 1.402344 -0.40625 0.976562 -0.449219 0.664062 -0.1875 Z M 0.664062 -0.1875 "/></g></g></g><g fill="#ffffff" fill-opacity="1"><g transform="translate(75.280406, 39.37839)"><g/></g></g><g fill="#ffffff" fill-opacity="1"><g transform="translate(76.823973, 41.752211)"><g/></g></g><g fill="#ffffff" fill-opacity="1"><g transform="translate(78.161635, 44.119147)"><g><path d="M 6.269531 1.246094 C 5.738281 -0.382812 4.347656 -1.128906 2.699219 -0.59375 C 1.046875 -0.0585938 0.359375 1.363281 0.886719 2.992188 C 1.128906 3.730469 1.582031 4.242188 2.011719 4.515625 C 2.175781 4.613281 2.351562 4.652344 2.53125 4.597656 C 2.875 4.484375 3.015625 4.207031 2.894531 3.832031 C 2.855469 3.714844 2.816406 3.644531 2.730469 3.574219 C 2.382812 3.324219 2.144531 3.046875 2.007812 2.625 C 1.722656 1.746094 2.125 0.996094 3.109375 0.675781 C 4.097656 0.355469 4.859375 0.726562 5.148438 1.609375 C 5.28125 2.027344 5.253906 2.390625 5.121094 2.796875 C 5.089844 2.90625 5.097656 2.988281 5.136719 3.105469 C 5.257812 3.480469 5.535156 3.621094 5.878906 3.507812 C 6.058594 3.449219 6.179688 3.3125 6.253906 3.140625 C 6.441406 2.667969 6.507812 1.984375 6.269531 1.246094 Z M 6.269531 1.246094 "/></g></g></g><g fill="#ffffff" fill-opacity="1"><g transform="translate(79.90248, 49.820441)"><g><path d="M 5.660156 0.503906 C 5.613281 0.0585938 5.308594 -0.121094 4.886719 -0.078125 L 0.746094 0.347656 C 0.324219 0.394531 0.0664062 0.632812 0.113281 1.078125 L 0.390625 3.789062 C 0.425781 4.117188 0.71875 4.355469 1.046875 4.320312 C 1.375 4.289062 1.613281 3.996094 1.578125 3.667969 L 1.367188 1.628906 L 5.027344 1.25 C 5.449219 1.207031 5.707031 0.949219 5.660156 0.503906 Z M 5.660156 0.503906 "/></g></g></g><g fill="#ffffff" fill-opacity="1"><g transform="translate(80.422502, 54.832374)"><g><path d="M 5.421875 1.695312 C 5.472656 1.25 5.214844 1.007812 4.792969 0.960938 L 2.039062 0.652344 C 0.734375 0.507812 -0.226562 1.335938 -0.390625 2.785156 C -0.550781 4.238281 0.207031 5.246094 1.507812 5.394531 L 4.265625 5.699219 C 4.6875 5.746094 4.992188 5.558594 5.042969 5.113281 C 5.089844 4.671875 4.835938 4.421875 4.414062 4.375 L 1.796875 4.082031 C 1.046875 3.996094 0.703125 3.605469 0.78125 2.917969 C 0.859375 2.230469 1.3125 1.917969 2.03125 1.996094 L 4.644531 2.289062 C 5.066406 2.335938 5.375 2.140625 5.421875 1.695312 Z M 5.421875 1.695312 "/></g></g></g><g fill="#ffffff" fill-opacity="1"><g transform="translate(79.670551, 60.890252)"><g><path d="M 1.246094 4.878906 C 1.339844 5.300781 1.648438 5.675781 2.152344 5.855469 C 3.078125 6.179688 3.773438 5.835938 4.148438 4.777344 L 4.601562 3.488281 L 4.703125 3.199219 L 4.824219 2.855469 C 4.972656 2.433594 4.785156 2.136719 4.386719 1.996094 L 0.519531 0.632812 C 0.117188 0.492188 -0.214844 0.609375 -0.363281 1.03125 L -0.484375 1.371094 L -1.09375 3.105469 C -1.410156 4 -1.242188 4.867188 -0.238281 5.222656 C 0.382812 5.441406 0.898438 5.296875 1.246094 4.878906 Z M 0.429688 2.015625 L 1.496094 2.394531 L 1.074219 3.59375 C 0.949219 3.949219 0.691406 4.132812 0.335938 4.007812 C -0.0273438 3.878906 -0.113281 3.558594 0.0078125 3.21875 Z M 2.519531 2.753906 L 3.585938 3.128906 L 3.210938 4.195312 C 3.089844 4.542969 2.78125 4.660156 2.476562 4.554688 C 2.171875 4.445312 2.019531 4.167969 2.144531 3.820312 Z M 2.519531 2.753906 "/></g></g></g><g fill="#ffffff" fill-opacity="1"><g transform="translate(77.657628, 66.336458)"><g><path d="M 4.121094 3.800781 C 4.355469 3.417969 4.234375 3.089844 3.871094 2.867188 L 0.375 0.726562 C 0.0117188 0.503906 -0.335938 0.550781 -0.570312 0.929688 L -2.019531 3.304688 C -2.171875 3.550781 -2.09375 3.886719 -1.84375 4.039062 C -1.597656 4.191406 -1.253906 4.113281 -1.101562 3.863281 L 0 2.0625 L 0.964844 2.652344 L 0.273438 3.785156 C 0.121094 4.035156 0.207031 4.371094 0.457031 4.523438 C 0.703125 4.675781 1.042969 4.597656 1.195312 4.351562 L 1.890625 3.21875 L 2.855469 3.808594 L 1.75 5.613281 C 1.597656 5.859375 1.6875 6.199219 1.933594 6.351562 C 2.183594 6.5 2.515625 6.421875 2.667969 6.171875 Z M 4.121094 3.800781 "/></g></g></g><g fill="#ffffff" fill-opacity="1"><g transform="translate(74.780487, 70.757002)"><g/></g></g><g fill="#ffffff" fill-opacity="1"><g transform="translate(73.067989, 72.883208)"><g><path d="M 2.398438 5.183594 L 2.746094 4.886719 C 3.085938 4.597656 3.0625 4.242188 2.789062 3.921875 L 0.0859375 0.753906 C -0.191406 0.429688 -0.535156 0.351562 -0.875 0.644531 C -1.214844 0.933594 -1.207031 1.296875 -0.929688 1.621094 L -0.296875 2.359375 L -1.25 3.171875 C -2.097656 3.894531 -2.171875 4.847656 -1.324219 5.839844 C -0.488281 6.820312 0.433594 6.859375 1.351562 6.074219 L 2.230469 5.324219 Z M 0.476562 3.269531 L 1.457031 4.417969 L 0.726562 5.039062 C 0.367188 5.34375 -0.00390625 5.332031 -0.332031 4.949219 C -0.652344 4.574219 -0.609375 4.199219 -0.253906 3.890625 Z M 0.476562 3.269531 "/></g></g></g><g fill="#ffffff" fill-opacity="1"><g transform="translate(68.80304, 76.471202)"><g><path d="M 0.207031 6.199219 C 0.210938 6.199219 0.226562 6.191406 0.234375 6.1875 C 0.460938 6.066406 0.589844 5.820312 0.570312 5.5625 L 0.246094 0.867188 C 0.242188 0.761719 0.214844 0.660156 0.171875 0.574219 C 0.00390625 0.257812 -0.410156 0.128906 -0.730469 0.296875 C -0.980469 0.429688 -1.128906 0.652344 -1.089844 0.929688 L -0.957031 1.882812 L -2.679688 2.796875 L -3.394531 2.152344 C -3.601562 1.957031 -3.871094 1.957031 -4.121094 2.089844 C -4.4375 2.257812 -4.558594 2.667969 -4.390625 2.988281 C -4.347656 3.074219 -4.285156 3.15625 -4.199219 3.214844 L -0.492188 6.125 C -0.285156 6.28125 -0.0234375 6.304688 0.207031 6.199219 Z M -1.867188 3.546875 L -0.796875 2.980469 L -0.550781 4.734375 Z M -1.867188 3.546875 "/></g></g></g><g fill="#ffffff" fill-opacity="1"><g transform="translate(63.662159, 79.254099)"><g><path d="M 0.527344 5.605469 C 0.878906 5.523438 1.082031 5.160156 1 4.808594 C 0.984375 4.730469 0.96875 4.664062 0.929688 4.605469 L -1.417969 0.726562 C -1.570312 0.503906 -1.867188 0.355469 -2.128906 0.417969 C -2.40625 0.480469 -2.648438 0.707031 -2.660156 1.015625 L -2.753906 3.964844 L -4.148438 1.363281 C -4.292969 1.089844 -4.621094 1 -4.882812 1.058594 C -5.121094 1.113281 -5.367188 1.339844 -5.390625 1.652344 L -5.777344 6.207031 C -5.78125 6.269531 -5.773438 6.324219 -5.761719 6.386719 C -5.679688 6.738281 -5.308594 6.96875 -4.957031 6.886719 C -4.605469 6.804688 -4.457031 6.605469 -4.449219 6.296875 L -4.34375 3.335938 L -2.953125 5.941406 C -2.808594 6.214844 -2.527344 6.316406 -2.234375 6.25 C -1.945312 6.179688 -1.714844 5.957031 -1.714844 5.652344 L -1.613281 2.699219 L -0.214844 5.300781 C -0.0703125 5.574219 0.199219 5.679688 0.527344 5.605469 Z M 0.527344 5.605469 "/></g></g></g><g fill="#ffffff" fill-opacity="1"><g transform="translate(56.208938, 80.78912)"><g><path d="M -2.519531 5.53125 C -1.222656 5.554688 -0.574219 4.890625 -0.558594 3.917969 C -0.539062 2.992188 -0.980469 2.527344 -1.777344 2.292969 L -2.707031 2.035156 C -3.152344 1.90625 -3.269531 1.699219 -3.261719 1.480469 C -3.257812 1.183594 -3.042969 0.949219 -2.515625 0.960938 C -1.957031 0.96875 -1.550781 1.070312 -1.132812 1.355469 C -1.039062 1.417969 -0.9375 1.4375 -0.851562 1.4375 C -0.527344 1.445312 -0.304688 1.226562 -0.300781 0.914062 C -0.296875 0.789062 -0.339844 0.652344 -0.449219 0.542969 C -0.90625 0.101562 -1.609375 -0.109375 -2.519531 -0.125 C -3.910156 -0.148438 -4.582031 0.570312 -4.601562 1.519531 C -4.617188 2.414062 -4.238281 2.863281 -3.378906 3.113281 L -2.449219 3.375 C -2.050781 3.484375 -1.886719 3.652344 -1.894531 3.949219 C -1.898438 4.261719 -2.164062 4.457031 -2.617188 4.445312 C -2.988281 4.441406 -3.292969 4.324219 -3.601562 4.074219 C -3.695312 4.003906 -3.804688 3.976562 -3.90625 3.976562 C -4.257812 3.96875 -4.445312 4.1875 -4.449219 4.5 C -4.453125 4.625 -4.414062 4.746094 -4.328125 4.847656 C -3.984375 5.230469 -3.242188 5.519531 -2.519531 5.53125 Z M -2.519531 5.53125 "/></g></g></g><g fill="#ffffff" fill-opacity="1"><g transform="translate(50.745757, 80.53358)"><g/></g></g><g fill="#ffffff" fill-opacity="1"><g transform="translate(45.258737, 79.16671)"><g/></g></g><g fill="#ffffff" fill-opacity="1"><g transform="translate(42.658902, 78.044905)"><g/></g></g><g fill="#ffffff" fill-opacity="1"><g transform="translate(40.196269, 76.647379)"><g/></g></g><g fill="#ffffff" fill-opacity="1"><g transform="translate(37.897766, 74.985981)"><g><path d="M -0.625 0.289062 C -0.359375 -0.0195312 -0.390625 -0.445312 -0.699219 -0.714844 C -1.007812 -0.984375 -1.421875 -0.949219 -1.691406 -0.640625 C -1.960938 -0.335938 -1.9375 0.0820312 -1.628906 0.351562 C -1.320312 0.617188 -0.894531 0.59375 -0.625 0.289062 Z M -0.625 0.289062 "/></g></g></g><g fill="#ffffff" fill-opacity="1"><g transform="translate(35.867106, 73.1613)"><g><path d="M -0.652344 0.21875 C -0.355469 -0.0585938 -0.34375 -0.484375 -0.621094 -0.785156 C -0.898438 -1.082031 -1.316406 -1.09375 -1.613281 -0.816406 C -1.914062 -0.539062 -1.933594 -0.121094 -1.65625 0.175781 C -1.378906 0.476562 -0.953125 0.5 -0.652344 0.21875 Z M -0.652344 0.21875 "/></g></g></g><g fill="#ffffff" fill-opacity="1"><g transform="translate(34.038702, 71.133988)"><g><path d="M -0.671875 0.152344 C -0.34375 -0.09375 -0.289062 -0.519531 -0.535156 -0.84375 C -0.78125 -1.171875 -1.195312 -1.226562 -1.519531 -0.980469 C -1.847656 -0.734375 -1.910156 -0.324219 -1.667969 0.00390625 C -1.421875 0.328125 -1 0.394531 -0.671875 0.152344 Z M -0.671875 0.152344 "/></g></g></g><g fill="#ffffff" fill-opacity="1"><g transform="translate(32.433373, 68.931477)"><g/></g></g><g clip-path="url(#e7964eea88)"><g clip-path="url(#52e9f35733)"><path stroke-linecap="butt" transform="matrix(0.406774, 0, 0, 0.406774, 33.569084, 33.836566)" fill="none" stroke-linejoin="miter" d="M 50.812532 -0.00154501 C 22.752545 -0.00154501 0.00302085 22.747979 0.00302085 50.807966 C 0.00302085 78.877556 22.752545 101.627079 50.812532 101.627079 C 78.872518 101.627079 101.622042 78.877556 101.622042 50.807966 C 101.622042 22.747979 78.872518 -0.00154501 50.812532 -0.00154501 Z M 50.812532 -0.00154501 " stroke="#ffffff" stroke-width="11.012379" stroke-opacity="1" stroke-miterlimit="4"/></g></g><g clip-path="url(#f654c5a647)"><path fill="#ffffff" d="M 50.054688 57.636719 C 48.734375 58.96875 45.886719 59.664062 46.535156 63.117188 C 47.195312 66.640625 52.074219 65.730469 54.617188 65.652344 C 55.96875 65.613281 61.53125 66.652344 62.628906 63.855469 C 63.589844 61.414062 62.003906 59.777344 59.605469 57.851562 C 57.464844 56.132812 56.855469 53.277344 54.371094 53.300781 C 52.046875 53.324219 50.863281 56.824219 50.054688 57.636719 " fill-opacity="1" fill-rule="nonzero"/></g><g clip-path="url(#cdf84f8dbd)"><path fill="#ffffff" d="M 45.542969 52.394531 C 46.90625 53.929688 47.164062 55.875 46.121094 56.742188 C 45.078125 57.605469 43.128906 57.0625 41.765625 55.527344 C 40.402344 53.992188 40.144531 52.046875 41.1875 51.183594 C 42.230469 50.316406 44.179688 50.859375 45.542969 52.394531 " fill-opacity="1" fill-rule="nonzero"/></g><path fill="#ffffff" d="M 52.183594 47.554688 C 52.839844 49.765625 52.222656 51.875 50.8125 52.265625 C 49.402344 52.65625 47.730469 51.179688 47.078125 48.972656 C 46.421875 46.761719 47.035156 44.652344 48.449219 44.261719 C 49.859375 43.871094 51.53125 45.347656 52.183594 47.554688 " fill-opacity="1" fill-rule="nonzero"/><g clip-path="url(#206e22c475)"><path fill="#ffffff" d="M 60.71875 48.511719 C 60.0625 50.671875 58.421875 52.121094 57.050781 51.746094 C 55.679688 51.371094 55.101562 49.3125 55.757812 47.148438 C 56.410156 44.984375 58.054688 43.535156 59.421875 43.910156 C 60.792969 44.289062 61.375 46.347656 60.71875 48.511719 " fill-opacity="1" fill-rule="nonzero"/></g><path fill="#ffffff" d="M 66.632812 55.453125 C 65.203125 57.105469 63.140625 57.71875 62.03125 56.824219 C 60.921875 55.925781 61.183594 53.855469 62.613281 52.203125 C 64.042969 50.546875 66.105469 49.933594 67.214844 50.832031 C 68.328125 51.730469 68.066406 53.796875 66.632812 55.453125 " fill-opacity="1" fill-rule="nonzero"/></svg>