<svg xmlns="http://www.w3.org/2000/svg" xmlns:xlink="http://www.w3.org/1999/xlink" width="33" zoomAndPan="magnify" viewBox="0 0 24.75 24.75" height="33" preserveAspectRatio="xMidYMid meet" version="1.0"><defs><clipPath id="4b92920636"><path d="M 0.234375 0.203125 L 23.996094 0.203125 L 23.996094 23.964844 L 0.234375 23.964844 Z M 0.234375 0.203125 " clip-rule="nonzero"/></clipPath></defs><g clip-path="url(#4b92920636)"><path fill="#cbdd85" d="M 9.804688 0.203125 C 8.917969 0.203125 8.207031 0.914062 8.207031 1.800781 L 8.207031 8.179688 L 1.828125 8.179688 C 0.945312 8.179688 0.234375 8.890625 0.234375 9.773438 L 0.234375 14.558594 C 0.234375 15.441406 0.945312 16.152344 1.828125 16.152344 L 8.207031 16.152344 L 8.207031 22.53125 C 8.207031 23.414062 8.921875 24.125 9.804688 24.125 L 14.585938 24.125 C 15.472656 24.125 16.183594 23.414062 16.183594 22.53125 L 16.183594 16.152344 L 22.5625 16.152344 C 23.445312 16.152344 24.15625 15.441406 24.15625 14.558594 L 24.15625 9.773438 C 24.15625 8.890625 23.445312 8.179688 22.5625 8.179688 L 16.183594 8.179688 L 16.183594 1.800781 C 16.183594 0.914062 15.472656 0.203125 14.585938 0.203125 Z M 9.804688 0.203125 " fill-opacity="1" fill-rule="nonzero"/><path fill="#cbdd85" d="M 9.804688 0.203125 C 8.917969 0.203125 8.207031 0.914062 8.207031 1.800781 L 8.207031 8.179688 L 1.828125 8.179688 C 0.945312 8.179688 0.234375 8.890625 0.234375 9.773438 L 0.234375 14.558594 C 0.234375 15.441406 0.945312 16.152344 1.828125 16.152344 L 8.207031 16.152344 L 8.207031 22.53125 C 8.207031 23.414062 8.921875 24.125 9.804688 24.125 L 14.585938 24.125 C 15.472656 24.125 16.183594 23.414062 16.183594 22.53125 L 16.183594 16.152344 L 22.5625 16.152344 C 23.445312 16.152344 24.15625 15.441406 24.15625 14.558594 L 24.15625 9.773438 C 24.15625 8.890625 23.445312 8.179688 22.5625 8.179688 L 16.183594 8.179688 L 16.183594 1.800781 C 16.183594 0.914062 15.472656 0.203125 14.585938 0.203125 Z M 9.804688 0.203125 " fill-opacity="1" fill-rule="nonzero"/></g></svg>