<svg xmlns="http://www.w3.org/2000/svg" xmlns:xlink="http://www.w3.org/1999/xlink" width="59" zoomAndPan="magnify" viewBox="0 0 44.25 46.5" height="62" preserveAspectRatio="xMidYMid meet" version="1.0"><defs><clipPath id="57dd53fefb"><path d="M 34 12 L 42.664062 12 L 42.664062 25 L 34 25 Z M 34 12 " clip-rule="nonzero"/></clipPath><clipPath id="0833f2faf6"><path d="M 0.625 12 L 10 12 L 10 25 L 0.625 25 Z M 0.625 12 " clip-rule="nonzero"/></clipPath><clipPath id="e8f1147667"><path d="M 3 18 L 41 18 L 41 44.960938 L 3 44.960938 Z M 3 18 " clip-rule="nonzero"/></clipPath><clipPath id="3062ac770f"><path d="M 34 12 L 42.664062 12 L 42.664062 25 L 34 25 Z M 34 12 " clip-rule="nonzero"/></clipPath><clipPath id="0d97218d6f"><path d="M 0.625 12 L 10 12 L 10 25 L 0.625 25 Z M 0.625 12 " clip-rule="nonzero"/></clipPath><clipPath id="146081db0e"><path d="M 3 18 L 41 18 L 41 44.960938 L 3 44.960938 Z M 3 18 " clip-rule="nonzero"/></clipPath></defs><path fill="#b7e402" d="M 28.464844 15.433594 C 28.246094 15.433594 28.027344 15.414062 27.8125 15.378906 C 25.015625 14.882812 23.371094 11.390625 24.070312 7.425781 C 24.765625 3.460938 27.511719 0.738281 30.304688 1.234375 C 33.101562 1.726562 34.746094 5.222656 34.046875 9.1875 C 33.726562 11.019531 32.933594 12.667969 31.820312 13.828125 C 30.8125 14.878906 29.640625 15.433594 28.464844 15.433594 Z M 29.664062 2.738281 C 27.902344 2.738281 26.097656 4.890625 25.601562 7.695312 C 25.074219 10.695312 26.210938 13.511719 28.082031 13.84375 C 28.945312 13.996094 29.875 13.609375 30.695312 12.75 C 31.597656 11.808594 32.242188 10.449219 32.515625 8.914062 C 33.042969 5.914062 31.90625 3.097656 30.035156 2.769531 C 29.910156 2.746094 29.789062 2.738281 29.664062 2.738281 Z M 29.664062 2.738281 " fill-opacity="1" fill-rule="nonzero"/><g clip-path="url(#57dd53fefb)"><path fill="#b7e402" d="M 37.488281 24.070312 C 37.125 24.070312 36.761719 24.007812 36.414062 23.878906 C 34.238281 23.089844 33.402344 20.082031 34.511719 17.039062 C 35.617188 13.996094 38.191406 12.226562 40.363281 13.019531 C 41.457031 13.417969 42.242188 14.386719 42.578125 15.753906 C 42.886719 17.003906 42.777344 18.464844 42.269531 19.863281 C 41.335938 22.414062 39.375 24.070312 37.488281 24.070312 Z M 39.292969 14.394531 C 38.074219 14.394531 36.652344 15.707031 35.972656 17.574219 C 35.191406 19.722656 35.636719 21.9375 36.945312 22.417969 C 38.257812 22.894531 40.019531 21.480469 40.804688 19.332031 C 41.207031 18.21875 41.300781 17.082031 41.066406 16.125 C 40.859375 15.285156 40.421875 14.703125 39.832031 14.484375 C 39.660156 14.421875 39.480469 14.394531 39.292969 14.394531 Z M 39.292969 14.394531 " fill-opacity="1" fill-rule="nonzero"/></g><g clip-path="url(#0833f2faf6)"><path fill="#b7e402" d="M 6.023438 24.070312 C 4.132812 24.070312 2.171875 22.414062 1.246094 19.863281 C 0.734375 18.464844 0.625 17.003906 0.933594 15.753906 C 1.269531 14.386719 2.054688 13.417969 3.148438 13.019531 C 5.316406 12.226562 7.894531 13.996094 9.003906 17.039062 C 10.113281 20.082031 9.273438 23.089844 7.101562 23.878906 C 6.746094 24.007812 6.382812 24.070312 6.023438 24.070312 Z M 2.707031 19.332031 C 3.488281 21.480469 5.253906 22.894531 6.566406 22.417969 C 7.871094 21.9375 8.316406 19.722656 7.535156 17.574219 C 6.753906 15.421875 4.988281 14.011719 3.679688 14.484375 C 3.089844 14.703125 2.652344 15.285156 2.445312 16.125 C 2.207031 17.082031 2.300781 18.21875 2.707031 19.332031 Z M 2.707031 19.332031 " fill-opacity="1" fill-rule="nonzero"/></g><path fill="#b7e402" d="M 15.046875 15.433594 C 13.871094 15.433594 12.699219 14.878906 11.6875 13.828125 C 10.574219 12.667969 9.785156 11.019531 9.460938 9.1875 C 8.761719 5.222656 10.40625 1.726562 13.203125 1.234375 C 16 0.738281 18.742188 3.460938 19.441406 7.425781 C 20.136719 11.390625 18.496094 14.882812 15.699219 15.378906 C 15.484375 15.414062 15.265625 15.433594 15.046875 15.433594 Z M 13.84375 2.738281 C 13.722656 2.738281 13.597656 2.746094 13.476562 2.769531 C 11.601562 3.097656 10.46875 5.914062 10.996094 8.914062 C 11.269531 10.449219 11.914062 11.808594 12.816406 12.75 C 13.636719 13.605469 14.566406 13.992188 15.429688 13.84375 C 17.300781 13.511719 18.4375 10.699219 17.910156 7.695312 C 17.410156 4.890625 15.605469 2.738281 13.84375 2.738281 Z M 13.84375 2.738281 " fill-opacity="1" fill-rule="nonzero"/><g clip-path="url(#e8f1147667)"><path fill="#b7e402" d="M 32.171875 44.8125 C 31.117188 44.8125 30.09375 44.683594 29.1875 44.472656 C 27.878906 44.167969 26.695312 43.515625 25.550781 42.882812 C 24.242188 42.160156 23.003906 41.476562 21.832031 41.476562 C 20.664062 41.476562 19.429688 42.160156 18.117188 42.882812 C 16.972656 43.511719 15.789062 44.167969 14.484375 44.472656 C 11.421875 45.1875 6.996094 44.964844 4.609375 41.984375 C 2.6875 39.582031 2.460938 35.351562 5.1875 32.882812 C 5.980469 32.164062 6.878906 31.613281 7.746094 31.082031 C 9.027344 30.296875 10.234375 29.554688 11.011719 28.347656 C 11.597656 27.441406 11.957031 26.410156 12.335938 25.324219 C 12.753906 24.128906 13.183594 22.894531 13.945312 21.78125 C 15.457031 19.574219 18.257812 18.355469 21.832031 18.355469 C 25.75 18.355469 28.464844 19.527344 29.90625 21.832031 C 30.578125 22.910156 30.945312 24.089844 31.304688 25.234375 C 31.675781 26.429688 32.03125 27.558594 32.699219 28.519531 C 33.777344 30.0625 34.917969 30.675781 36.117188 31.324219 C 36.902344 31.746094 37.710938 32.183594 38.480469 32.878906 C 41.207031 35.347656 40.980469 39.578125 39.058594 41.980469 C 37.375 44.082031 34.683594 44.8125 32.171875 44.8125 Z M 21.832031 39.921875 C 23.40625 39.921875 24.878906 40.734375 26.300781 41.519531 C 27.355469 42.097656 28.441406 42.699219 29.539062 42.957031 C 32.15625 43.566406 35.90625 43.421875 37.839844 41.007812 C 39.289062 39.199219 39.480469 35.890625 37.433594 34.035156 C 36.804688 33.46875 36.113281 33.09375 35.375 32.699219 C 34.128906 32.023438 32.710938 31.257812 31.421875 29.414062 C 30.613281 28.253906 30.207031 26.957031 29.8125 25.699219 C 29.472656 24.601562 29.148438 23.566406 28.582031 22.660156 C 27.445312 20.839844 25.175781 19.914062 21.832031 19.914062 C 20.070312 19.914062 16.867188 20.269531 15.230469 22.660156 C 14.585938 23.605469 14.207031 24.6875 13.804688 25.835938 C 13.410156 26.960938 13.003906 28.125 12.320312 29.191406 C 11.347656 30.699219 9.929688 31.570312 8.554688 32.410156 C 7.714844 32.929688 6.914062 33.414062 6.230469 34.035156 C 4.179688 35.890625 4.371094 39.199219 5.824219 41.007812 C 7.753906 43.421875 11.5 43.566406 14.125 42.957031 C 15.21875 42.699219 16.308594 42.097656 17.363281 41.519531 C 18.792969 40.734375 20.261719 39.921875 21.832031 39.921875 Z M 21.832031 39.921875 " fill-opacity="1" fill-rule="nonzero"/></g><path fill="#b7e402" d="M 23.871094 37.414062 L 19.636719 37.414062 C 19.089844 37.414062 18.644531 36.96875 18.644531 36.417969 L 18.644531 33.902344 L 16.125 33.902344 C 15.574219 33.902344 15.128906 33.457031 15.128906 32.90625 L 15.128906 28.675781 C 15.128906 28.128906 15.574219 27.683594 16.125 27.683594 L 18.644531 27.683594 L 18.644531 25.164062 C 18.644531 24.613281 19.089844 24.167969 19.636719 24.167969 L 23.867188 24.167969 C 24.417969 24.167969 24.863281 24.613281 24.863281 25.164062 L 24.863281 27.683594 L 27.378906 27.683594 C 27.929688 27.683594 28.375 28.128906 28.375 28.675781 L 28.375 32.90625 C 28.375 33.457031 27.929688 33.902344 27.378906 33.902344 L 24.863281 33.902344 L 24.863281 36.417969 C 24.863281 36.96875 24.417969 37.414062 23.871094 37.414062 Z M 20.203125 35.859375 L 23.308594 35.859375 L 23.308594 33.125 C 23.308594 32.691406 23.65625 32.34375 24.085938 32.34375 L 26.820312 32.34375 L 26.820312 29.238281 L 24.085938 29.238281 C 23.65625 29.238281 23.308594 28.890625 23.308594 28.460938 L 23.308594 25.726562 L 20.203125 25.726562 L 20.203125 28.460938 C 20.203125 28.890625 19.855469 29.238281 19.421875 29.238281 L 16.6875 29.238281 L 16.6875 32.34375 L 19.421875 32.34375 C 19.855469 32.34375 20.203125 32.691406 20.203125 33.125 Z M 20.203125 35.859375 " fill-opacity="1" fill-rule="nonzero"/><path fill="#b7e402" d="M 28.464844 15.433594 C 28.246094 15.433594 28.027344 15.414062 27.8125 15.378906 C 25.015625 14.882812 23.371094 11.390625 24.070312 7.425781 C 24.765625 3.460938 27.511719 0.738281 30.304688 1.234375 C 33.101562 1.726562 34.746094 5.222656 34.046875 9.1875 C 33.726562 11.019531 32.933594 12.667969 31.820312 13.828125 C 30.8125 14.878906 29.640625 15.433594 28.464844 15.433594 Z M 29.664062 2.738281 C 27.902344 2.738281 26.097656 4.890625 25.601562 7.695312 C 25.074219 10.695312 26.210938 13.511719 28.082031 13.84375 C 28.945312 13.996094 29.875 13.609375 30.695312 12.75 C 31.597656 11.808594 32.242188 10.449219 32.515625 8.914062 C 33.042969 5.914062 31.90625 3.097656 30.035156 2.769531 C 29.910156 2.746094 29.789062 2.738281 29.664062 2.738281 Z M 29.664062 2.738281 " fill-opacity="1" fill-rule="nonzero"/><g clip-path="url(#3062ac770f)"><path fill="#b7e402" d="M 37.488281 24.070312 C 37.125 24.070312 36.761719 24.007812 36.414062 23.878906 C 34.238281 23.089844 33.402344 20.082031 34.511719 17.039062 C 35.617188 13.996094 38.191406 12.226562 40.363281 13.019531 C 41.457031 13.417969 42.242188 14.386719 42.578125 15.753906 C 42.886719 17.003906 42.777344 18.464844 42.269531 19.863281 C 41.335938 22.414062 39.375 24.070312 37.488281 24.070312 Z M 39.292969 14.394531 C 38.074219 14.394531 36.652344 15.707031 35.972656 17.574219 C 35.191406 19.722656 35.636719 21.9375 36.945312 22.417969 C 38.257812 22.894531 40.019531 21.480469 40.804688 19.332031 C 41.207031 18.21875 41.300781 17.082031 41.066406 16.125 C 40.859375 15.285156 40.421875 14.703125 39.832031 14.484375 C 39.660156 14.421875 39.480469 14.394531 39.292969 14.394531 Z M 39.292969 14.394531 " fill-opacity="1" fill-rule="nonzero"/></g><g clip-path="url(#0d97218d6f)"><path fill="#b7e402" d="M 6.023438 24.070312 C 4.132812 24.070312 2.171875 22.414062 1.246094 19.863281 C 0.734375 18.464844 0.625 17.003906 0.933594 15.753906 C 1.269531 14.386719 2.054688 13.417969 3.148438 13.019531 C 5.316406 12.226562 7.894531 13.996094 9.003906 17.039062 C 10.113281 20.082031 9.273438 23.089844 7.101562 23.878906 C 6.746094 24.007812 6.382812 24.070312 6.023438 24.070312 Z M 2.707031 19.332031 C 3.488281 21.480469 5.253906 22.894531 6.566406 22.417969 C 7.871094 21.9375 8.316406 19.722656 7.535156 17.574219 C 6.753906 15.421875 4.988281 14.011719 3.679688 14.484375 C 3.089844 14.703125 2.652344 15.285156 2.445312 16.125 C 2.207031 17.082031 2.300781 18.21875 2.707031 19.332031 Z M 2.707031 19.332031 " fill-opacity="1" fill-rule="nonzero"/></g><path fill="#b7e402" d="M 15.046875 15.433594 C 13.871094 15.433594 12.699219 14.878906 11.6875 13.828125 C 10.574219 12.667969 9.785156 11.019531 9.460938 9.1875 C 8.761719 5.222656 10.40625 1.726562 13.203125 1.234375 C 16 0.738281 18.742188 3.460938 19.441406 7.425781 C 20.136719 11.390625 18.496094 14.882812 15.699219 15.378906 C 15.484375 15.414062 15.265625 15.433594 15.046875 15.433594 Z M 13.84375 2.738281 C 13.722656 2.738281 13.597656 2.746094 13.476562 2.769531 C 11.601562 3.097656 10.46875 5.914062 10.996094 8.914062 C 11.269531 10.449219 11.914062 11.808594 12.816406 12.75 C 13.636719 13.605469 14.566406 13.992188 15.429688 13.84375 C 17.300781 13.511719 18.4375 10.699219 17.910156 7.695312 C 17.410156 4.890625 15.605469 2.738281 13.84375 2.738281 Z M 13.84375 2.738281 " fill-opacity="1" fill-rule="nonzero"/><g clip-path="url(#146081db0e)"><path fill="#b7e402" d="M 32.171875 44.8125 C 31.117188 44.8125 30.09375 44.683594 29.1875 44.472656 C 27.878906 44.167969 26.695312 43.515625 25.550781 42.882812 C 24.242188 42.160156 23.003906 41.476562 21.832031 41.476562 C 20.664062 41.476562 19.429688 42.160156 18.117188 42.882812 C 16.972656 43.511719 15.789062 44.167969 14.484375 44.472656 C 11.421875 45.1875 6.996094 44.964844 4.609375 41.984375 C 2.6875 39.582031 2.460938 35.351562 5.1875 32.882812 C 5.980469 32.164062 6.878906 31.613281 7.746094 31.082031 C 9.027344 30.296875 10.234375 29.554688 11.011719 28.347656 C 11.597656 27.441406 11.957031 26.410156 12.335938 25.324219 C 12.753906 24.128906 13.183594 22.894531 13.945312 21.78125 C 15.457031 19.574219 18.257812 18.355469 21.832031 18.355469 C 25.75 18.355469 28.464844 19.527344 29.90625 21.832031 C 30.578125 22.910156 30.945312 24.089844 31.304688 25.234375 C 31.675781 26.429688 32.03125 27.558594 32.699219 28.519531 C 33.777344 30.0625 34.917969 30.675781 36.117188 31.324219 C 36.902344 31.746094 37.710938 32.183594 38.480469 32.878906 C 41.207031 35.347656 40.980469 39.578125 39.058594 41.980469 C 37.375 44.082031 34.683594 44.8125 32.171875 44.8125 Z M 21.832031 39.921875 C 23.40625 39.921875 24.878906 40.734375 26.300781 41.519531 C 27.355469 42.097656 28.441406 42.699219 29.539062 42.957031 C 32.15625 43.566406 35.90625 43.421875 37.839844 41.007812 C 39.289062 39.199219 39.480469 35.890625 37.433594 34.035156 C 36.804688 33.46875 36.113281 33.09375 35.375 32.699219 C 34.128906 32.023438 32.710938 31.257812 31.421875 29.414062 C 30.613281 28.253906 30.207031 26.957031 29.8125 25.699219 C 29.472656 24.601562 29.148438 23.566406 28.582031 22.660156 C 27.445312 20.839844 25.175781 19.914062 21.832031 19.914062 C 20.070312 19.914062 16.867188 20.269531 15.230469 22.660156 C 14.585938 23.605469 14.207031 24.6875 13.804688 25.835938 C 13.410156 26.960938 13.003906 28.125 12.320312 29.191406 C 11.347656 30.699219 9.929688 31.570312 8.554688 32.410156 C 7.714844 32.929688 6.914062 33.414062 6.230469 34.035156 C 4.179688 35.890625 4.371094 39.199219 5.824219 41.007812 C 7.753906 43.421875 11.5 43.566406 14.125 42.957031 C 15.21875 42.699219 16.308594 42.097656 17.363281 41.519531 C 18.792969 40.734375 20.261719 39.921875 21.832031 39.921875 Z M 21.832031 39.921875 " fill-opacity="1" fill-rule="nonzero"/></g><path fill="#b7e402" d="M 23.871094 37.414062 L 19.636719 37.414062 C 19.089844 37.414062 18.644531 36.96875 18.644531 36.417969 L 18.644531 33.902344 L 16.125 33.902344 C 15.574219 33.902344 15.128906 33.457031 15.128906 32.90625 L 15.128906 28.675781 C 15.128906 28.128906 15.574219 27.683594 16.125 27.683594 L 18.644531 27.683594 L 18.644531 25.164062 C 18.644531 24.613281 19.089844 24.167969 19.636719 24.167969 L 23.867188 24.167969 C 24.417969 24.167969 24.863281 24.613281 24.863281 25.164062 L 24.863281 27.683594 L 27.378906 27.683594 C 27.929688 27.683594 28.375 28.128906 28.375 28.675781 L 28.375 32.90625 C 28.375 33.457031 27.929688 33.902344 27.378906 33.902344 L 24.863281 33.902344 L 24.863281 36.417969 C 24.863281 36.96875 24.417969 37.414062 23.871094 37.414062 Z M 20.203125 35.859375 L 23.308594 35.859375 L 23.308594 33.125 C 23.308594 32.691406 23.65625 32.34375 24.085938 32.34375 L 26.820312 32.34375 L 26.820312 29.238281 L 24.085938 29.238281 C 23.65625 29.238281 23.308594 28.890625 23.308594 28.460938 L 23.308594 25.726562 L 20.203125 25.726562 L 20.203125 28.460938 C 20.203125 28.890625 19.855469 29.238281 19.421875 29.238281 L 16.6875 29.238281 L 16.6875 32.34375 L 19.421875 32.34375 C 19.855469 32.34375 20.203125 32.691406 20.203125 33.125 Z M 20.203125 35.859375 " fill-opacity="1" fill-rule="nonzero"/></svg>