<svg xmlns="http://www.w3.org/2000/svg" xmlns:xlink="http://www.w3.org/1999/xlink" width="35" zoomAndPan="magnify" viewBox="0 0 26.25 23.25" height="31" preserveAspectRatio="xMidYMid meet" version="1.0"><defs><clipPath id="b3495aba86"><path d="M 0.640625 0.335938 L 25.34375 0.335938 L 25.34375 22.132812 L 0.640625 22.132812 Z M 0.640625 0.335938 " clip-rule="nonzero"/></clipPath><clipPath id="85ea132ee8"><path d="M 0.640625 0.335938 L 25.34375 0.335938 L 25.34375 22.132812 L 0.640625 22.132812 Z M 0.640625 0.335938 " clip-rule="nonzero"/></clipPath></defs><g clip-path="url(#b3495aba86)"><path fill="#c54844" d="M 25.023438 7.828125 C 24.738281 6.453125 24.128906 6.285156 22.4375 6.183594 C 22.21875 6.167969 22.015625 6.507812 21.761719 6.496094 C 21.375 6.472656 20.804688 6.609375 19.53125 6.070312 C 19.527344 6.070312 19.523438 6.070312 19.519531 6.066406 C 19.582031 4.789062 19.628906 2.09375 19.019531 1.453125 C 18.214844 0.605469 7.640625 0.34375 7.035156 1.347656 C 6.640625 2.003906 6.640625 4.761719 6.683594 6.0625 C 5.226562 6.554688 4.070312 5.988281 3.40625 6.054688 C 3.160156 6.082031 2.980469 6.109375 2.886719 6.144531 C 1.667969 6.570312 1.394531 7.070312 1.179688 7.515625 C 0.640625 8.632812 0.996094 18.507812 0.992188 19.394531 C 0.992188 20.144531 1.324219 20.96875 3.296875 21.195312 C 3.328125 21.511719 3.371094 21.859375 3.40625 21.917969 C 3.464844 22.03125 5.636719 22.03125 5.792969 21.917969 C 5.886719 21.851562 6.023438 21.53125 6.121094 21.273438 C 9.648438 21.316406 16.535156 21.445312 20.402344 21.390625 C 20.464844 21.675781 20.539062 21.984375 20.589844 22 C 20.679688 22.027344 22.738281 22.128906 22.894531 22 C 22.960938 21.949219 23.046875 21.613281 23.121094 21.242188 C 24.714844 20.910156 25.132812 20.046875 25.210938 18.105469 C 25.285156 16.132812 25.339844 9.378906 25.023438 7.828125 Z M 8.714844 5.921875 C 8.703125 4.777344 8.753906 3.054688 9.140625 2.996094 C 9.722656 2.90625 17.332031 2.863281 17.382812 3.441406 C 17.410156 3.792969 17.40625 5.0625 17.394531 6.019531 C 14.789062 5.964844 11.503906 5.917969 8.714844 5.921875 Z M 8.714844 5.921875 " fill-opacity="1" fill-rule="nonzero"/></g><path fill="#fff6e1" d="M 12.164062 8.792969 C 7.75 10.109375 7.96875 14.304688 9.820312 16.460938 C 11.464844 18.445312 15.902344 18.640625 16.984375 14.730469 C 18.0625 10.820312 15.171875 7.898438 12.164062 8.792969 Z M 15.753906 14.078125 C 15.683594 14.144531 14.847656 14.210938 13.847656 14.253906 C 13.90625 15.265625 13.945312 16.136719 13.933594 16.210938 C 13.898438 16.390625 12.808594 16.277344 12.664062 16.207031 C 12.605469 16.175781 12.507812 15.320312 12.429688 14.296875 C 11.390625 14.320312 10.476562 14.3125 10.34375 14.261719 C 10.160156 14.1875 10.191406 12.980469 10.457031 12.933594 C 10.5625 12.917969 11.371094 12.894531 12.335938 12.878906 C 12.277344 11.804688 12.257812 10.867188 12.332031 10.796875 C 12.59375 10.542969 13.542969 10.660156 13.609375 10.917969 C 13.636719 11.023438 13.699219 11.871094 13.761719 12.859375 C 14.855469 12.847656 15.816406 12.851562 15.902344 12.882812 C 16.101562 12.957031 15.933594 13.910156 15.753906 14.078125 Z M 15.753906 14.078125 " fill-opacity="1" fill-rule="nonzero"/><path fill="#2b3244" d="M 19.640625 6.851562 C 19.574219 6.796875 19.542969 6.375 19.53125 6.066406 C 20.574219 6.09375 21.363281 6.121094 21.753906 6.144531 C 22 6.15625 22.226562 6.167969 22.4375 6.179688 C 22.480469 6.492188 22.5 6.804688 22.402344 6.851562 C 22.199219 6.953125 19.742188 6.9375 19.640625 6.851562 Z M 3.558594 6.726562 C 3.699219 6.824219 6.929688 6.921875 6.976562 6.726562 C 7.003906 6.53125 7.019531 6.222656 7.027344 5.929688 C 5.425781 5.945312 4.121094 5.984375 3.40625 6.054688 C 3.4375 6.359375 3.488281 6.675781 3.558594 6.726562 Z M 3.296875 21.195312 L 3.320312 21.402344 C 3.320312 21.402344 5.925781 21.519531 5.867188 21.269531 C 5.832031 21.132812 3.910156 21.378906 3.296875 21.195312 Z M 20.589844 21.402344 C 20.527344 21.539062 22.152344 21.578125 23.058594 21.527344 L 23.121094 21.242188 C 22.492188 21.519531 20.652344 21.261719 20.589844 21.402344 Z M 20.589844 21.402344 " fill-opacity="1" fill-rule="nonzero"/><g clip-path="url(#85ea132ee8)"><path fill="#c54844" d="M 25.023438 7.828125 C 24.738281 6.453125 24.128906 6.285156 22.4375 6.183594 C 22.21875 6.167969 22.015625 6.507812 21.761719 6.496094 C 21.375 6.472656 20.804688 6.609375 19.53125 6.070312 C 19.527344 6.070312 19.523438 6.070312 19.519531 6.066406 C 19.582031 4.789062 19.628906 2.09375 19.019531 1.453125 C 18.214844 0.605469 7.640625 0.34375 7.035156 1.347656 C 6.640625 2.003906 6.640625 4.761719 6.683594 6.0625 C 5.226562 6.554688 4.070312 5.988281 3.40625 6.054688 C 3.160156 6.082031 2.980469 6.109375 2.886719 6.144531 C 1.667969 6.570312 1.394531 7.070312 1.179688 7.515625 C 0.640625 8.632812 0.996094 18.507812 0.992188 19.394531 C 0.992188 20.144531 1.324219 20.96875 3.296875 21.195312 C 3.328125 21.511719 3.371094 21.859375 3.40625 21.917969 C 3.464844 22.03125 5.636719 22.03125 5.792969 21.917969 C 5.886719 21.851562 6.023438 21.53125 6.121094 21.273438 C 9.648438 21.316406 16.535156 21.445312 20.402344 21.390625 C 20.464844 21.675781 20.539062 21.984375 20.589844 22 C 20.679688 22.027344 22.738281 22.128906 22.894531 22 C 22.960938 21.949219 23.046875 21.613281 23.121094 21.242188 C 24.714844 20.910156 25.132812 20.046875 25.210938 18.105469 C 25.285156 16.132812 25.339844 9.378906 25.023438 7.828125 Z M 8.714844 5.921875 C 8.703125 4.777344 8.753906 3.054688 9.140625 2.996094 C 9.722656 2.90625 17.332031 2.863281 17.382812 3.441406 C 17.410156 3.792969 17.40625 5.0625 17.394531 6.019531 C 14.789062 5.964844 11.503906 5.917969 8.714844 5.921875 Z M 8.714844 5.921875 " fill-opacity="1" fill-rule="nonzero"/></g><path fill="#fff6e1" d="M 12.164062 8.792969 C 7.75 10.109375 7.96875 14.304688 9.820312 16.460938 C 11.464844 18.445312 15.902344 18.640625 16.984375 14.730469 C 18.0625 10.820312 15.171875 7.898438 12.164062 8.792969 Z M 15.753906 14.078125 C 15.683594 14.144531 14.847656 14.210938 13.847656 14.253906 C 13.90625 15.265625 13.945312 16.136719 13.933594 16.210938 C 13.898438 16.390625 12.808594 16.277344 12.664062 16.207031 C 12.605469 16.175781 12.507812 15.320312 12.429688 14.296875 C 11.390625 14.320312 10.476562 14.3125 10.34375 14.261719 C 10.160156 14.1875 10.191406 12.980469 10.457031 12.933594 C 10.5625 12.917969 11.371094 12.894531 12.335938 12.878906 C 12.277344 11.804688 12.257812 10.867188 12.332031 10.796875 C 12.59375 10.542969 13.542969 10.660156 13.609375 10.917969 C 13.636719 11.023438 13.699219 11.871094 13.761719 12.859375 C 14.855469 12.847656 15.816406 12.851562 15.902344 12.882812 C 16.101562 12.957031 15.933594 13.910156 15.753906 14.078125 Z M 15.753906 14.078125 " fill-opacity="1" fill-rule="nonzero"/><path fill="#2b3244" d="M 19.640625 6.851562 C 19.574219 6.796875 19.542969 6.375 19.53125 6.066406 C 20.574219 6.09375 21.363281 6.121094 21.753906 6.144531 C 22 6.15625 22.226562 6.167969 22.4375 6.179688 C 22.480469 6.492188 22.5 6.804688 22.402344 6.851562 C 22.199219 6.953125 19.742188 6.9375 19.640625 6.851562 Z M 3.558594 6.726562 C 3.699219 6.824219 6.929688 6.921875 6.976562 6.726562 C 7.003906 6.53125 7.019531 6.222656 7.027344 5.929688 C 5.425781 5.945312 4.121094 5.984375 3.40625 6.054688 C 3.4375 6.359375 3.488281 6.675781 3.558594 6.726562 Z M 3.296875 21.195312 L 3.320312 21.402344 C 3.320312 21.402344 5.925781 21.519531 5.867188 21.269531 C 5.832031 21.132812 3.910156 21.378906 3.296875 21.195312 Z M 20.589844 21.402344 C 20.527344 21.539062 22.152344 21.578125 23.058594 21.527344 L 23.121094 21.242188 C 22.492188 21.519531 20.652344 21.261719 20.589844 21.402344 Z M 20.589844 21.402344 " fill-opacity="1" fill-rule="nonzero"/></svg>