<svg xmlns="http://www.w3.org/2000/svg" xmlns:xlink="http://www.w3.org/1999/xlink" width="59" zoomAndPan="magnify" viewBox="0 0 44.25 44.249999" height="59" preserveAspectRatio="xMidYMid meet" version="1.0"><defs><clipPath id="bf3561c297"><path d="M 0.378906 0.445312 L 43 0.445312 L 43 43 L 0.378906 43 Z M 0.378906 0.445312 " clip-rule="nonzero"/></clipPath><clipPath id="4955e3878b"><path d="M 0.378906 0.445312 L 43 0.445312 L 43 43 L 0.378906 43 Z M 0.378906 0.445312 " clip-rule="nonzero"/></clipPath></defs><path fill="#b7e402" d="M 18.019531 16.855469 C 14.046875 19.148438 20.109375 30.511719 24.453125 28.003906 L 28.484375 34.984375 C 26.652344 36.042969 25.097656 36.710938 22.972656 35.496094 C 17.070312 32.121094 10.570312 20.867188 10.753906 14.15625 C 10.820312 11.824219 12.191406 10.914062 13.988281 9.875 Z M 18.019531 16.855469 " fill-opacity="1" fill-rule="evenodd"/><path fill="#b7e402" d="M 19.683594 16.667969 C 19.257812 16.914062 18.703125 16.765625 18.457031 16.335938 L 14.65625 9.757812 C 14.410156 9.328125 14.554688 8.773438 14.984375 8.527344 L 16.984375 7.375 C 17.410156 7.125 17.964844 7.273438 18.210938 7.703125 L 22.011719 14.285156 C 22.257812 14.714844 22.113281 15.265625 21.683594 15.515625 Z M 19.683594 16.667969 " fill-opacity="1" fill-rule="evenodd"/><path fill="#b7e402" d="M 30.066406 34.644531 C 29.636719 34.894531 29.082031 34.746094 28.835938 34.316406 L 25.035156 27.734375 C 24.789062 27.304688 24.9375 26.753906 25.367188 26.507812 L 27.363281 25.351562 C 27.792969 25.105469 28.34375 25.253906 28.59375 25.683594 L 32.390625 32.261719 C 32.640625 32.691406 32.492188 33.246094 32.0625 33.492188 Z M 30.066406 34.644531 " fill-opacity="1" fill-rule="evenodd"/><g clip-path="url(#bf3561c297)"><path fill="#b7e402" d="M 21.632812 0.445312 L 21.632812 0.449219 C 27.503906 0.453125 32.816406 2.828125 36.660156 6.671875 C 40.503906 10.515625 42.882812 15.828125 42.882812 21.699219 L 42.886719 21.699219 L 42.882812 21.699219 C 42.882812 27.570312 40.503906 32.886719 36.660156 36.730469 C 32.816406 40.570312 27.503906 42.949219 21.632812 42.949219 L 21.632812 42.953125 L 21.632812 42.949219 C 15.761719 42.949219 10.449219 40.570312 6.605469 36.726562 C 2.761719 32.886719 0.382812 27.570312 0.382812 21.699219 L 0.378906 21.699219 L 0.382812 21.699219 C 0.382812 15.828125 2.761719 10.515625 6.605469 6.671875 C 10.449219 2.828125 15.761719 0.453125 21.632812 0.449219 Z M 21.632812 2.980469 L 21.632812 2.984375 L 21.632812 2.980469 C 16.46875 2.980469 11.789062 5.078125 8.402344 8.46875 C 5.011719 11.859375 2.914062 16.535156 2.914062 21.699219 L 2.917969 21.699219 L 2.914062 21.699219 C 2.914062 26.863281 5.011719 31.542969 8.402344 34.933594 C 11.789062 38.320312 16.46875 40.417969 21.632812 40.417969 L 21.632812 40.414062 L 21.632812 40.417969 C 26.796875 40.417969 31.476562 38.320312 34.867188 34.933594 C 38.253906 31.542969 40.351562 26.863281 40.351562 21.699219 L 40.347656 21.699219 L 40.351562 21.699219 C 40.351562 16.535156 38.253906 11.859375 34.867188 8.46875 C 31.476562 5.078125 26.796875 2.980469 21.632812 2.980469 Z M 21.632812 2.980469 " fill-opacity="1" fill-rule="nonzero"/></g><path fill="#b7e402" d="M 18.019531 16.855469 C 14.046875 19.148438 20.109375 30.511719 24.453125 28.003906 L 28.484375 34.984375 C 26.652344 36.042969 25.097656 36.710938 22.972656 35.496094 C 17.070312 32.121094 10.570312 20.867188 10.753906 14.15625 C 10.820312 11.824219 12.191406 10.914062 13.988281 9.875 Z M 18.019531 16.855469 " fill-opacity="1" fill-rule="evenodd"/><path fill="#b7e402" d="M 19.683594 16.667969 C 19.257812 16.914062 18.703125 16.765625 18.457031 16.335938 L 14.65625 9.757812 C 14.410156 9.328125 14.554688 8.773438 14.984375 8.527344 L 16.984375 7.375 C 17.410156 7.125 17.964844 7.273438 18.210938 7.703125 L 22.011719 14.285156 C 22.257812 14.714844 22.113281 15.265625 21.683594 15.515625 Z M 19.683594 16.667969 " fill-opacity="1" fill-rule="evenodd"/><path fill="#b7e402" d="M 30.066406 34.644531 C 29.636719 34.894531 29.082031 34.746094 28.835938 34.316406 L 25.035156 27.734375 C 24.789062 27.304688 24.9375 26.753906 25.367188 26.507812 L 27.363281 25.351562 C 27.792969 25.105469 28.34375 25.253906 28.59375 25.683594 L 32.390625 32.261719 C 32.640625 32.691406 32.492188 33.246094 32.0625 33.492188 Z M 30.066406 34.644531 " fill-opacity="1" fill-rule="evenodd"/><g clip-path="url(#4955e3878b)"><path fill="#b7e402" d="M 21.632812 0.445312 L 21.632812 0.449219 C 27.503906 0.453125 32.816406 2.828125 36.660156 6.671875 C 40.503906 10.515625 42.882812 15.828125 42.882812 21.699219 L 42.886719 21.699219 L 42.882812 21.699219 C 42.882812 27.570312 40.503906 32.886719 36.660156 36.730469 C 32.816406 40.570312 27.503906 42.949219 21.632812 42.949219 L 21.632812 42.953125 L 21.632812 42.949219 C 15.761719 42.949219 10.449219 40.570312 6.605469 36.726562 C 2.761719 32.886719 0.382812 27.570312 0.382812 21.699219 L 0.378906 21.699219 L 0.382812 21.699219 C 0.382812 15.828125 2.761719 10.515625 6.605469 6.671875 C 10.449219 2.828125 15.761719 0.453125 21.632812 0.449219 Z M 21.632812 2.980469 L 21.632812 2.984375 L 21.632812 2.980469 C 16.46875 2.980469 11.789062 5.078125 8.402344 8.46875 C 5.011719 11.859375 2.914062 16.535156 2.914062 21.699219 L 2.917969 21.699219 L 2.914062 21.699219 C 2.914062 26.863281 5.011719 31.542969 8.402344 34.933594 C 11.789062 38.320312 16.46875 40.417969 21.632812 40.417969 L 21.632812 40.414062 L 21.632812 40.417969 C 26.796875 40.417969 31.476562 38.320312 34.867188 34.933594 C 38.253906 31.542969 40.351562 26.863281 40.351562 21.699219 L 40.347656 21.699219 L 40.351562 21.699219 C 40.351562 16.535156 38.253906 11.859375 34.867188 8.46875 C 31.476562 5.078125 26.796875 2.980469 21.632812 2.980469 Z M 21.632812 2.980469 " fill-opacity="1" fill-rule="nonzero"/></g></svg>